<?xml version="1.0" standalone="no"?>
<!DOCTYPE svg PUBLIC "-//W3C//DTD SVG 1.1//EN" "http://www.w3.org/Graphics/SVG/1.1/DTD/svg11.dtd" >
<svg xmlns="http://www.w3.org/2000/svg" xmlns:xlink="http://www.w3.org/1999/xlink" version="1.1">
<metadata>
Created by FontForge 20161013 at Tue Jun 21 03:46:28 2016
 By ,,,
Copyright (c) 2015 by Rodrigo Saiani. All rights reserved.
</metadata>
<defs>
<font id="GlobotipoCondensada-Black" horiz-adv-x="0" >
  <font-face 
    font-family="Globotipo Condensada Black"
    font-weight="900"
    font-stretch="condensed"
    units-per-em="1000"
    panose-1="0 0 10 6 0 0 0 0 0 0"
    ascent="800"
    descent="-200"
    x-height="480"
    cap-height="710"
    bbox="-295.118 -216 1069 982"
    underline-thickness="50"
    underline-position="-200"
    unicode-range="U+0020-FB02"
  />
<missing-glyph horiz-adv-x="700" 
d="M350 709q146 0 250 -104t104 -250q0 -147 -104 -251t-250 -104q-147 0 -251 104t-104 251q0 146 104 250t251 104zM350 20q138 0 236 98t98 237q0 138 -98 236t-236 98q-139 0 -237 -98t-98 -236q0 -139 98 -237t237 -98zM555 573l14 -14l-205 -205l205 -205l-14 -14
l-205 205l-205 -205l-14 14l205 205l-205 205l14 14l205 -205z" />
    <glyph glyph-name="fi" unicode="fi" horiz-adv-x="677" 
d="M375 480q15 0 15 -15v-106q0 -15 -15 -15h-100v-329q0 -15 -15 -15h-167q-14 0 -14 15v329h-57q-14 0 -14 15v106q0 15 14 15h57v53q0 110 53 166.5t154 56.5q49 0 90 -12q14 -5 14 -20v-103q0 -27 -30 -23q-11 2 -22 2q-63 0 -63 -70v-50h100zM536 527q-34 0 -60.5 15
t-40 40.5t-13.5 57.5t13.5 57.5t40 41t60.5 15.5q52 0 82.5 -32.5t30.5 -81.5t-30.5 -81t-82.5 -32zM620 480q14 0 14 -15v-450q0 -15 -14 -15h-167q-15 0 -15 15v450q0 15 15 15h167z" />
    <glyph glyph-name="fl" unicode="fl" horiz-adv-x="727" 
d="M375 480q15 0 15 -15v-106q0 -15 -15 -15h-100v-329q0 -15 -15 -15h-167q-14 0 -14 15v329h-57q-14 0 -14 15v106q0 15 14 15h57v53q0 110 53 166.5t154 56.5q49 0 90 -12q14 -5 14 -20v-103q0 -27 -30 -23q-11 2 -22 2q-63 0 -63 -70v-50h100zM703 150q6 3 10 3
q7 0 7 -12v-108q0 -21 -17 -28q-42 -15 -98 -15q-80 0 -123.5 38.5t-43.5 116.5v586q0 15 15 15h167q14 0 14 -15v-545q0 -42 37 -42q17 0 32 6z" />
    <glyph glyph-name=".notdef" horiz-adv-x="700" 
d="M350 709q146 0 250 -104t104 -250q0 -147 -104 -251t-250 -104q-147 0 -251 104t-104 251q0 146 104 250t251 104zM350 20q138 0 236 98t98 237q0 138 -98 236t-236 98q-139 0 -237 -98t-98 -236q0 -139 98 -237t237 -98zM555 573l14 -14l-205 -205l205 -205l-14 -14
l-205 205l-205 -205l-14 14l205 205l-205 205l14 14l205 -205z" />
    <glyph glyph-name=".null" 
 />
    <glyph glyph-name="nonmarkingreturn" horiz-adv-x="333" 
 />
    <glyph glyph-name="space" unicode=" " horiz-adv-x="185" 
 />
    <glyph glyph-name="exclam" unicode="!" horiz-adv-x="285" 
d="M93 251q-15 0 -16 14l-41 430v3q0 12 13 12h187q15 0 14 -15l-42 -430q-1 -14 -16 -14h-99zM144 -10q-43 0 -71.5 31.5t-28.5 73.5q0 44 28.5 74.5t71.5 30.5q28 0 51 -14.5t35.5 -38.5t12.5 -52q0 -42 -28 -73.5t-71 -31.5z" />
    <glyph glyph-name="quotedbl" unicode="&#x22;" horiz-adv-x="565" 
d="M89 376q-14 0 -16 15l-31 304v3q0 12 13 12h178q15 0 13 -15l-31 -304q-2 -15 -16 -15h-110zM350 376q-15 0 -17 15l-31 304v3q0 12 13 12h178q15 0 13 -15l-31 -304q-2 -15 -16 -15h-109z" />
    <glyph glyph-name="numbersign" unicode="#" horiz-adv-x="679" 
d="M648 535q14 0 14 -14v-90q0 -11 -10 -11h-120l-23 -134h120q10 0 10 -10v-93q0 -12 -12 -12h-137l-27 -157q-3 -14 -18 -14h-110q-10 0 -8 10l28 161h-115l-28 -159q-2 -12 -13 -12h-107q-15 0 -12 14l27 157h-73q-15 0 -15 15v85q0 15 15 15h92l24 134h-96q-12 0 -12 12
v89q0 14 15 14h112l28 161q2 14 17 14h109q11 0 9 -10l-29 -165h114l28 163q2 12 14 12h109q14 0 12 -14l-28 -161h96zM374 286l23 134h-114l-23 -134h114z" />
    <glyph glyph-name="dollar" unicode="$" horiz-adv-x="520" 
d="M493 228q0 -87 -56 -146t-151 -72l-17 -130q-2 -14 -16 -14h-96q-14 0 -13 14l17 132q-67 9 -115 31q-13 5 -13 21v140q0 15 13 8q86 -42 160 -42q14 0 25.5 3t20 9t13 15t4.5 20q0 24 -16.5 39t-56.5 33q-29 13 -48.5 23.5t-44 29t-39.5 38.5t-26 49t-11 63
q0 88 58.5 143t148.5 68l16 121q2 14 17 14h95q15 0 13 -14l-16 -122q48 -5 90 -17q14 -4 14 -19v-127q0 -14 -14 -9q-69 23 -140 23q-29 0 -46.5 -12.5t-17.5 -33.5q0 -24 18.5 -38t61.5 -34q6 -3 9 -4q81 -38 120 -83t39 -120z" />
    <glyph glyph-name="percent" unicode="%" horiz-adv-x="751" 
d="M113 7q-7 4 -7 11q0 4 3 8l468 708q5 7 12 7q4 0 8 -3l39 -22q7 -5 7 -11q0 -4 -3 -9l-468 -709q-4 -7 -11 -7q-4 0 -9 3zM199 386q-66 0 -113 46t-47 120q0 75 47 121.5t113 46.5q31 0 60 -12t51 -33.5t35.5 -53.5t13.5 -69q0 -74 -47 -120t-113 -46zM199 492
q32 0 32 60q0 62 -32 62q-16 0 -24.5 -17.5t-8.5 -44.5q0 -26 8.5 -43t24.5 -17zM551 -10q-65 0 -112 46t-47 120q0 75 47 121.5t112 46.5q43 0 79.5 -20.5t59 -59t22.5 -88.5q0 -74 -47.5 -120t-113.5 -46zM551 96q33 0 33 60q0 62 -33 62q-15 0 -23.5 -17.5t-8.5 -44.5
q0 -26 8.5 -43t23.5 -17z" />
    <glyph glyph-name="ampersand" unicode="&#x26;" horiz-adv-x="686" 
d="M652 12q3 -5 3 -7q0 -5 -9 -5h-175q-15 0 -22 12l-13 20q-72 -42 -162 -42q-104 0 -172.5 54.5t-68.5 153.5q0 61 32.5 108.5t92.5 77.5q-49 67 -49 141q0 87 60 141t150 54q59 0 107 -11q14 -4 14 -19v-126q0 -14 -13 -9q-29 11 -61 11q-23 0 -40 -16.5t-17 -42.5
q0 -29 17 -60t53 -77l59 -78q6 29 9 61q2 26 2 53q0 15 14 15h136q15 0 15 -15q-1 -31 -4 -57q-11 -117 -61 -203zM212 215q0 -18 6 -33.5t17 -26.5t27 -17.5t34 -6.5q28 0 52 12l-108 144q-28 -27 -28 -72z" />
    <glyph glyph-name="quotesingle" unicode="'" horiz-adv-x="288" 
d="M89 376q-14 0 -16 15l-31 304q-1 2 -1 3q0 12 14 12h178q15 0 13 -15l-31 -304q-2 -15 -17 -15h-109z" />
    <glyph glyph-name="parenleft" unicode="(" horiz-adv-x="401" 
d="M375 -176q6 -8 6 -14q0 -9 -17 -9h-110q-15 0 -24 10q-82 92 -125.5 199t-43.5 245.5t43.5 245.5t125.5 198q9 11 24 11h110q17 0 17 -9q0 -6 -6 -14q-71 -94 -111 -205t-40 -226.5t40 -227t111 -204.5z" />
    <glyph glyph-name="parenright" unicode=")" horiz-adv-x="401" 
d="M38 -199q-18 0 -18 9q0 6 6 14q71 93 111 204.5t40 227t-40 226.5t-111 204q-6 9 -6 15q0 9 18 9h109q15 0 25 -11q81 -91 125 -198t44 -245.5t-44 -245.5t-125 -199q-10 -10 -25 -10h-109z" />
    <glyph glyph-name="asterisk" unicode="*" horiz-adv-x="511" 
d="M481 497q1 -3 1 -6q0 -9 -11 -10l-57 -8q-14 -2 -29 -1l-70 4l60 -37q12 -8 22 -19l41 -39q5 -5 5 -10t-6 -9l-110 -80q-5 -3 -9 -3q-6 0 -9 7l-26 52q-6 13 -10 27l-17 69l-18 -69q-3 -14 -10 -27l-25 -51q-4 -8 -10 -8q-4 0 -9 4l-109 79q-7 5 -7 10q0 4 5 9l41 40
q11 10 23 18l59 37l-70 -4h-8q-11 0 -21 1l-56 8q-15 2 -10 16l42 129q4 14 17 8l51 -27q13 -7 24 -16l57 -48l-27 68q-5 14 -8 28l-9 57q-1 1 -1 3q0 11 13 11h136q14 0 12 -14l-10 -57q-2 -14 -8 -28l-25 -63l52 43q11 9 24 16l50 26q4 2 8 2q7 0 10 -9z" />
    <glyph glyph-name="plus" unicode="+" horiz-adv-x="617" 
d="M567 387q14 0 14 -14v-126q0 -15 -14 -15h-179v-181q0 -14 -14 -14h-130q-15 0 -15 14v181h-179q-15 0 -15 15v126q0 14 15 14h179v182q0 15 15 15h130q14 0 14 -15v-182h179z" />
    <glyph glyph-name="comma" unicode="," horiz-adv-x="270" 
d="M135 203q28 0 51 -13.5t36 -38t13 -54.5q0 -14 -4.5 -32.5t-7.5 -27.5t-15 -37t-14 -34l-63 -151q-5 -12 -18 -12h-45q-13 0 -10 13l42 184q-29 10 -47.5 36.5t-18.5 60.5q0 45 29.5 75.5t71.5 30.5z" />
    <glyph glyph-name="hyphen" unicode="-" horiz-adv-x="495" 
d="M96 181q-14 0 -14 15v126q0 14 14 14h302q15 0 15 -14v-126q0 -15 -15 -15h-302z" />
    <glyph glyph-name="period" unicode="." horiz-adv-x="268" 
d="M135 -7q-29 0 -52 15t-36 39t-13 51q0 44 28.5 74.5t72.5 30.5q43 0 71 -30.5t28 -74.5q0 -42 -28 -73.5t-71 -31.5z" />
    <glyph glyph-name="slash" unicode="/" horiz-adv-x="414" 
d="M-18 -138q-15 0 -10 14l326 901q5 13 20 13h110q14 0 9 -13l-325 -901q-5 -14 -20 -14h-110z" />
    <glyph glyph-name="zero" unicode="0" horiz-adv-x="625" 
d="M312 -9q-44 0 -84 13t-75 41.5t-60.5 70t-40 103t-14.5 136.5q0 94 22.5 165.5t61 114t87 64t103.5 21.5q57 0 105 -21.5t86.5 -64.5t61 -114.5t22.5 -164t-22 -164t-60.5 -114.5t-87 -64.5t-105.5 -21.5zM312 173q41 0 58 43t17 139t-17 139.5t-58 43.5q-39 0 -57 -44
t-18 -139t18 -138.5t57 -43.5z" />
    <glyph glyph-name="one" unicode="1" horiz-adv-x="454" 
d="M345 714q15 0 15 -15v-684q0 -15 -15 -15h-171q-15 0 -15 15v465l-96 -42q-3 -1 -6 -1q-7 0 -7 10v137q0 15 13 21l219 103q13 6 28 6h35z" />
    <glyph glyph-name="two" unicode="2" horiz-adv-x="517" 
d="M454 168q15 0 15 -14v-139q0 -15 -15 -15h-402q-20 0 -20 14q0 5 4 13l149 293q26 50 39 82.5t13 59.5q0 41 -27 64t-70 23q-42 0 -84 -20q-4 -1 -7 -1q-7 0 -7 10v140q0 15 14 20q56 22 148 22q75 0 130.5 -24.5t86 -72.5t30.5 -114q0 -31 -8 -63.5t-22 -65.5t-37 -76
l-72 -136h142z" />
    <glyph glyph-name="three" unicode="3" horiz-adv-x="525" 
d="M340 387q50 -13 83 -38t49 -58t16 -74q0 -68 -42.5 -120t-108.5 -78.5t-143 -26.5q-88 0 -141 22q-13 6 -13 21v134q0 14 14 9q51 -20 106 -20q31 0 54.5 8t36.5 23t13 36q0 28 -26 44t-76 16h-41q-15 0 -15 15v125q0 15 15 15h42q99 0 99 64q0 28 -28 44t-71 16
q-56 0 -103 -21q-4 -2 -7 -2q-6 0 -6 10v130q0 16 13 20q62 21 143 21q119 0 186.5 -48.5t67.5 -132.5q0 -108 -117 -154z" />
    <glyph glyph-name="four" unicode="4" horiz-adv-x="580" 
d="M542 255q14 0 14 -15v-124q0 -15 -14 -15h-56v-86q0 -15 -15 -15h-166q-15 0 -15 15v86h-246q-14 0 -14 15v131q0 14 8 27l266 424q8 12 23 12h144q15 0 15 -15v-440h56zM304 455q-27 -74 -44 -101l-59 -99h95v96q0 38 10 104h-2z" />
    <glyph glyph-name="five" unicode="5" horiz-adv-x="544" 
d="M261 460q114 -4 181.5 -55.5t67.5 -148.5q0 -82 -43.5 -143.5t-113 -92t-153.5 -30.5q-83 0 -137 25q-13 5 -13 21v134q0 14 13 9q52 -20 102 -20q57 0 92.5 22.5t35.5 61.5q0 24 -14 41.5t-41 26.5t-64 9q-54 0 -104 -20q-4 -2 -6 -2q-7 0 -5 10l60 388q3 14 17 14h335
q15 0 15 -15v-140q0 -15 -15 -15h-197z" />
    <glyph glyph-name="six" unicode="6" horiz-adv-x="584" 
d="M337 469q60 0 110.5 -29t79.5 -81t29 -116q0 -111 -77 -182t-185 -71q-117 0 -187.5 70.5t-70.5 175.5q0 119 76 231l158 231q8 12 23 12h194q14 0 5 -11l-53 -66q-14 -17 -33.5 -44t-47 -65.5t-40.5 -56.5q10 2 19 2zM295 156q33 0 56.5 22t23.5 60q0 39 -23 61t-57 22
t-56 -22.5t-22 -61.5q0 -26 10 -44.5t28 -27.5t40 -9z" />
    <glyph glyph-name="seven" unicode="7" horiz-adv-x="523" 
d="M505 710q16 0 10 -15l-231 -681q-5 -14 -19 -14h-185q-15 0 -10 15l184 514h-210q-14 0 -14 15v151q0 15 14 15h461z" />
    <glyph glyph-name="eight" unicode="8" horiz-adv-x="598" 
d="M299 -8q-70 0 -129 24t-96 73.5t-37 115.5q0 123 107 171q-85 53 -85 149q0 88 69 141.5t171 53.5q101 0 170.5 -53.5t69.5 -141.5q0 -96 -84 -149q106 -50 106 -171q0 -66 -37 -115.5t-96 -73.5t-129 -24zM299 446q12 0 22.5 5t17 13t10.5 18.5t4 22.5q0 24 -14.5 40.5
t-39.5 16.5t-39 -16.5t-14 -40.5q0 -25 14 -42t39 -17zM299 156q27 0 44.5 18t17.5 48q0 29 -17.5 47.5t-44.5 18.5q-26 0 -43.5 -19t-17.5 -47q0 -30 17 -48t44 -18z" />
    <glyph glyph-name="nine" unicode="9" horiz-adv-x="584" 
d="M289 720q117 0 187.5 -70.5t70.5 -175.5q0 -119 -76 -231l-157 -231q-9 -12 -23 -12h-194q-15 0 -6 11l53 66q14 17 33.5 44t47 65.5t40.5 56.5q-10 -2 -19 -2q-92 0 -155.5 64.5t-63.5 161.5q0 111 77 182t185 71zM209 472q0 -39 22.5 -61t56.5 -22t56.5 22.5t22.5 61.5
q0 26 -10.5 44.5t-28 27.5t-40.5 9q-33 0 -56 -22t-23 -60z" />
    <glyph glyph-name="colon" unicode=":" horiz-adv-x="264" 
d="M134 280q-43 0 -71 30.5t-28 72.5q0 43 28 73t71 30q42 0 69.5 -30t27.5 -73q0 -42 -28 -72.5t-69 -30.5zM134 -8q-43 0 -71 30.5t-28 72.5q0 43 28 73t71 30q21 0 39 -8.5t30.5 -22.5t20 -32.5t7.5 -39.5q0 -42 -28 -72.5t-69 -30.5z" />
    <glyph glyph-name="semicolon" unicode=";" horiz-adv-x="265" 
d="M134 280q-29 0 -52 14.5t-35 38t-12 50.5q0 43 28 73t71 30q28 0 50 -14t34.5 -37.5t12.5 -51.5q0 -42 -28 -72.5t-69 -30.5zM133 184q39 0 65.5 -28t26.5 -70q0 -11 -2 -21.5t-6.5 -24t-8 -22.5t-11 -26.5t-11.5 -26.5l-56 -137q-5 -13 -18 -13h-40q-13 0 -10 13l39 169
q-18 6 -32 19t-21.5 31.5t-7.5 38.5q0 42 27 70t66 28z" />
    <glyph glyph-name="less" unicode="&#x3c;" horiz-adv-x="617" 
d="M581 30q0 -21 -13 -21q-6 0 -14 4l-514 250q-13 7 -13 21v51q0 14 13 21l514 250q8 4 14 4q13 0 13 -21v-140q0 -15 -13 -21l-252 -117l252 -117q13 -7 13 -21v-143z" />
    <glyph glyph-name="equal" unicode="=" horiz-adv-x="617" 
d="M50 347q-15 0 -15 15v126q0 15 15 15h517q14 0 14 -15v-126q0 -15 -14 -15h-517zM50 127q-15 0 -15 14v126q0 15 15 15h517q14 0 14 -15v-126q0 -14 -14 -14h-517z" />
    <glyph glyph-name="greater" unicode="&#x3e;" horiz-adv-x="617" 
d="M75 13q-7 -4 -13 -4q-14 0 -14 21v143q0 14 14 21l252 117l-252 117q-14 6 -14 21v140q0 21 14 21q6 0 13 -4l514 -250q14 -7 14 -21v-51q0 -14 -13 -21z" />
    <glyph glyph-name="question" unicode="?" horiz-adv-x="455" 
d="M143 221q-29 0 -30 28l-5 109v1q0 13 13 17q97 30 97 97q0 23 -12.5 41.5t-35 29.5t-50.5 11q-36 0 -67 -9q-7 -2 -12 -2q-16 0 -16 21v99q0 33 28 41q51 15 122 15q111 0 180 -59t69 -151q0 -72 -44.5 -124.5t-109.5 -77.5l-8 -59q-4 -28 -32 -28h-87zM185 -7
q-29 0 -52.5 14t-36.5 36t-13 47q0 40 29 68t73 28q29 0 51.5 -13t35 -35t12.5 -48q0 -39 -28 -68t-71 -29z" />
    <glyph glyph-name="at" unicode="@" horiz-adv-x="853" 
d="M616 433q15 0 15 -15v-251q0 -50 36 -50q35 0 59 44.5t24 116.5q0 135 -88.5 222.5t-226.5 87.5q-146 0 -238.5 -98.5t-92.5 -247.5q0 -99 43 -181t124.5 -130.5t185.5 -48.5q132 0 243 71q4 2 7 2q5 0 5 -9v-45q0 -15 -12 -22q-111 -62 -243 -62q-122 0 -219 56
t-150 153t-53 216t51.5 213t143 146t204.5 52q110 0 198 -48.5t137.5 -134t49.5 -190.5q0 -112 -54.5 -180t-144.5 -68q-48 0 -85 21t-51 63q-35 -72 -113 -72q-65 0 -108 56.5t-43 142.5q0 85 43 141.5t108 56.5q71 0 104 -72h1v49q0 15 14 15h126zM430 161q20 0 32 21.5
t12 58.5q0 24 -5.5 42t-15 27.5t-23.5 9.5q-21 0 -33.5 -21.5t-12.5 -57.5q0 -37 12.5 -58.5t33.5 -21.5z" />
    <glyph glyph-name="A" unicode="A" horiz-adv-x="671" 
d="M656 14q1 -3 1 -6q0 -8 -11 -8h-193q-14 0 -18 14q-9 35 -19 79h-170q-10 -43 -19 -79q-4 -14 -19 -14h-184q-14 0 -10 14l233 683q5 14 19 14h140q15 0 19 -14zM279 233h104q-35 145 -52 214q-17 -69 -52 -214z" />
    <glyph glyph-name="B" unicode="B" horiz-adv-x="591" 
d="M413 379q52 -10 88 -33.5t54 -57.5t18 -77q0 -101 -83 -156t-224 -55h-195q-15 0 -15 15v680q0 15 15 15h199q128 0 199 -45.5t71 -135.5q0 -55 -33.5 -95.5t-93.5 -52.5v-2zM350 505q0 70 -89 70h-7v-145h5q91 0 91 75zM261 137q107 0 107 82q0 37 -27 57.5t-79 20.5h-8
v-160h7z" />
    <glyph glyph-name="C" unicode="C" horiz-adv-x="549" 
d="M344 -9q-49 0 -95 16t-85.5 47t-68.5 74.5t-45.5 101.5t-16.5 124q0 84 26 153.5t71.5 115.5t106 71.5t128.5 25.5q74 0 131 -23q14 -6 14 -21v-140q0 -18 -11 -18q-5 0 -14 4q-42 22 -95 22q-69 0 -110.5 -51t-41.5 -136.5t42.5 -136t107.5 -50.5q58 0 105 25q9 5 15 5
q10 0 10 -18v-135q0 -16 -12 -22q-69 -34 -162 -34z" />
    <glyph glyph-name="D" unicode="D" horiz-adv-x="663" 
d="M56 695q0 15 15 15h173q180 0 283 -98t103 -256q0 -159 -103 -257.5t-283 -98.5h-173q-15 0 -15 15v680zM259 548l-2 1v-388l2 1q55 0 92.5 24.5t55 67t17.5 101.5t-17.5 101.5t-55 67t-92.5 24.5z" />
    <glyph glyph-name="E" unicode="E" horiz-adv-x="509" 
d="M459 549h-196v-109h159q15 0 15 -15v-131q0 -15 -15 -15h-159v-118h196q14 0 14 -15v-131q0 -15 -14 -15h-388q-15 0 -15 15v680q0 15 15 15h388q14 0 14 -15v-131q0 -15 -14 -15z" />
    <glyph glyph-name="F" unicode="F" horiz-adv-x="485" 
d="M444 710q15 0 15 -15v-131q0 -15 -15 -15h-181v-151h155q15 0 15 -14v-132q0 -14 -15 -14h-155v-223q0 -15 -14 -15h-178q-15 0 -15 15v680q0 15 15 15h373z" />
    <glyph glyph-name="G" unicode="G" horiz-adv-x="644" 
d="M345 -8q-43 0 -83 11t-74.5 32t-63 52.5t-49 71t-31.5 88.5t-11 103q0 86 27.5 157t76 117t112.5 71t137 25q39 0 83 -8.5t76 -21.5q13 -6 13 -21l-1 -123q0 -22 -15 -22q-6 0 -13 3q-64 23 -129 23q-76 0 -119 -52.5t-43 -140.5t30 -141t82 -53q29 0 50.5 13t34 39
t13.5 63h-86q-15 0 -15 15v122q0 15 15 15h237q15 0 18 -14q10 -43 10 -97q0 -147 -76.5 -237t-205.5 -90z" />
    <glyph glyph-name="H" unicode="H" horiz-adv-x="689" 
d="M618 710q15 0 15 -15v-680q0 -15 -15 -15h-171q-15 0 -15 15v261h-175v-261q0 -15 -15 -15h-171q-15 0 -15 15v680q0 15 15 15h171q15 0 15 -15v-262h175v262q0 15 15 15h171z" />
    <glyph glyph-name="I" unicode="I" horiz-adv-x="335" 
d="M75 0q-15 0 -15 15v680q0 15 15 15h185q15 0 15 -15v-680q0 -15 -15 -15h-185z" />
    <glyph glyph-name="J" unicode="J" horiz-adv-x="435" 
d="M140 -8q-65 0 -109 17q-13 6 -13 21v130q0 14 14 10q36 -11 70 -11q23 0 39 10t25 30.5t9 50.5v446q0 15 15 15h179q15 0 15 -15v-441q0 -127 -66 -195t-178 -68z" />
    <glyph glyph-name="K" unicode="K" horiz-adv-x="677" 
d="M672 26q4 -8 4 -14q0 -12 -19 -12h-209q-15 0 -21 13l-156 329v-327q0 -15 -14 -15h-186q-15 0 -15 15v680q0 15 15 15h186q14 0 14 -15v-317l158 319q6 13 21 13h202q19 0 19 -12q0 -6 -5 -14l-193 -321z" />
    <glyph glyph-name="L" unicode="L" horiz-adv-x="508" 
d="M472 175q14 0 14 -15v-145q0 -15 -14 -15h-401q-15 0 -15 15v680q0 15 15 15h179q15 0 15 -15v-520h207z" />
    <glyph glyph-name="M" unicode="M" horiz-adv-x="847" 
d="M831 14q1 -1 1 -3q0 -11 -13 -11h-187q-14 0 -16 15l-31 350l-88 -349q-4 -14 -18 -14h-109q-14 0 -18 14l-99 350l-42 -351q-2 -15 -16 -15h-166q-15 0 -12 14l108 682q3 14 17 14h161q15 0 18 -14l109 -397l100 397q4 14 18 14h149q14 0 17 -14z" />
    <glyph glyph-name="N" unicode="N" horiz-adv-x="700" 
d="M630 710q14 0 14 -15v-680q0 -15 -14 -15h-130q-15 0 -23 12l-234 350v-347q0 -15 -15 -15h-157q-15 0 -15 15v680q0 15 15 15h130q14 0 22 -12l235 -361v358q0 15 15 15h157z" />
    <glyph glyph-name="O" unicode="O" horiz-adv-x="692" 
d="M346 -8q-63 0 -119.5 25t-100 70.5t-68.5 115t-25 152.5q0 84 25 154t68 115.5t100 70.5t120 25t119.5 -25t100 -70.5t68.5 -115.5t25 -154q0 -83 -25 -152.5t-68.5 -115t-100 -70.5t-119.5 -25zM346 169q37 0 63 27.5t37 68.5t11 90q0 50 -11 91.5t-37 69t-63 27.5
t-62.5 -27.5t-36.5 -69t-11 -91.5q0 -49 11 -90t36.5 -68.5t62.5 -27.5z" />
    <glyph glyph-name="P" unicode="P" horiz-adv-x="596" 
d="M277 710q88 0 156.5 -27t108.5 -81t40 -127q0 -107 -86 -171t-225 -64h-6v-225q0 -15 -15 -15h-179q-15 0 -15 15v680q0 15 15 15h206zM267 388q49 0 76 23.5t27 63.5t-27 63.5t-74 23.5h-4v-174h2z" />
    <glyph glyph-name="Q" unicode="Q" horiz-adv-x="693" 
d="M665 -23q3 -5 3 -9q0 -6 -7 -11l-112 -77q-5 -3 -9 -3q-7 0 -12 7l-88 123q-45 -15 -94 -15q-31 0 -61.5 6.5t-58 18.5t-53 30t-47 41t-39 52t-29.5 62t-18.5 72t-6.5 81q0 84 25 154t68 115.5t100 70.5t120 25t119.5 -25t100 -70.5t68.5 -115.5t25 -154q0 -155 -83 -255
zM236 355q0 -49 11 -90t36.5 -68.5t62.5 -27.5t63 27.5t37 68.5t11 90q0 50 -11 91.5t-37 69t-63 27.5t-62.5 -27.5t-36.5 -69t-11 -91.5z" />
    <glyph glyph-name="R" unicode="R" horiz-adv-x="636" 
d="M615 24q5 -8 5 -13q0 -11 -18 -11h-189q-15 0 -22 13l-136 244v-242q0 -15 -14 -15h-170q-15 0 -15 15v680q0 15 15 15h210q87 0 151.5 -25.5t100.5 -75t36 -118.5q0 -34 -9 -64t-26.5 -54t-42.5 -43t-57 -31zM259 563h-4v-182h4q52 0 78.5 24t26.5 68q0 42 -27 66
t-78 24z" />
    <glyph glyph-name="S" unicode="S" horiz-adv-x="536" 
d="M246 -10q-113 0 -192 37q-13 6 -13 21v143q0 14 13 7q84 -44 162 -44q38 0 60.5 14.5t22.5 42.5q0 23 -17 38.5t-56 31.5q-90 38 -138.5 88t-48.5 132q0 68 36.5 119t95 75.5t128.5 24.5q82 0 152 -22q14 -5 14 -19v-128q0 -15 -13 -9q-65 24 -126 24q-35 0 -54.5 -14
t-19.5 -37q0 -14 5 -25t18.5 -21t24 -16t33.5 -17q6 -3 9 -4q86 -42 126.5 -89.5t40.5 -124.5q0 -100 -71.5 -164t-191.5 -64z" />
    <glyph glyph-name="T" unicode="T" horiz-adv-x="562" 
d="M531 710q15 0 15 -15v-134q0 -15 -15 -15h-150v-531q0 -15 -14 -15h-172q-14 0 -14 15v531h-150q-15 0 -15 15v134q0 15 15 15h500z" />
    <glyph glyph-name="U" unicode="U" horiz-adv-x="675" 
d="M337 -8q-129 0 -205.5 74.5t-76.5 212.5v417q0 15 15 15h172q14 0 14 -15v-432q0 -49 22 -74.5t61.5 -25.5t61 25.5t21.5 74.5v432q0 15 14 15h169q14 0 14 -15v-417q0 -138 -76.5 -212.5t-205.5 -74.5z" />
    <glyph glyph-name="V" unicode="V" horiz-adv-x="688" 
d="M662 710q15 0 15 -11q0 -4 -2 -8l-246 -674q-7 -18 -26 -18h-120q-19 0 -26 17l-245 675q-2 5 -2 8q0 11 15 11h190q14 0 18 -14l115 -413l115 413q3 14 18 14h181z" />
    <glyph glyph-name="W" unicode="W" horiz-adv-x="968" 
d="M945 710q14 0 10 -14l-187 -682q-4 -14 -18 -14h-155q-14 0 -18 14l-93 367l-92 -367q-4 -14 -18 -14h-153q-14 0 -18 14l-191 682q-1 3 -1 5q0 9 12 9h193q14 0 17 -14l80 -374l90 374q4 14 18 14h135q14 0 18 -14l98 -397l79 397q2 14 17 14h177z" />
    <glyph glyph-name="X" unicode="X" horiz-adv-x="611" 
d="M598 27q5 -8 5 -14q0 -13 -21 -13h-180q-15 0 -21 13l-77 175l-75 -175q-6 -13 -20 -13h-175q-20 0 -20 13q0 6 5 14l190 328l-194 328q-5 9 -5 15q0 12 20 12h182q15 0 21 -13l78 -175l68 174q5 14 20 14h170q21 0 21 -13q0 -6 -5 -14l-175 -329z" />
    <glyph glyph-name="Y" unicode="Y" horiz-adv-x="612" 
d="M217 0q-15 0 -15 15v260l-209 409q-4 8 -4 14q0 13 20 13h177q14 0 20 -14l109 -261l101 261q6 14 20 14h165q20 0 20 -14q0 -5 -4 -13l-206 -409v-260q0 -15 -15 -15h-179z" />
    <glyph glyph-name="Z" unicode="Z" horiz-adv-x="543" 
d="M267 156h239q14 0 14 -15v-126q0 -15 -14 -15h-465q-14 0 -14 15v64q0 14 7 27l240 448h-222q-14 0 -14 15v126q0 15 14 15h449q15 0 15 -15v-64q0 -14 -7 -27z" />
    <glyph glyph-name="bracketleft" unicode="[" horiz-adv-x="349" 
d="M327 -185q0 -15 -14 -15h-242q-15 0 -15 15v880q0 15 15 15h241q15 0 15 -15v-92q0 -15 -15 -15h-105v-666h106q14 0 14 -14v-93z" />
    <glyph glyph-name="backslash" unicode="\" horiz-adv-x="414" 
d="M437 -124q2 -3 2 -6q0 -8 -11 -8h-111q-14 0 -19 14l-326 901q-1 3 -1 5q0 8 11 8h109q15 0 20 -13z" />
    <glyph glyph-name="bracketright" unicode="]" horiz-adv-x="349" 
d="M36 -200q-15 0 -15 15v93q0 14 15 14h105v666h-105q-14 0 -14 15v92q0 15 14 15h242q14 0 14 -15v-880q0 -15 -14 -15h-242z" />
    <glyph glyph-name="asciicircum" unicode="^" horiz-adv-x="600" 
d="M520 256h-130l-89 114l-89 -114h-131l148 224h143z" />
    <glyph glyph-name="underscore" unicode="_" horiz-adv-x="678" 
d="M96 -207q-14 0 -14 14v124q0 14 14 14h485q15 0 15 -14v-124q0 -14 -15 -14h-485z" />
    <glyph glyph-name="grave" unicode="`" horiz-adv-x="500" 
d="M375 555q1 -3 1 -6q0 -7 -10 -7h-99q-15 0 -24 12l-116 151q-5 8 -5 14q0 10 15 15l126 41q4 1 7 1q9 0 13 -10z" />
    <glyph glyph-name="a" unicode="a" horiz-adv-x="572" 
d="M515 480q14 0 14 -15v-450q0 -15 -14 -15h-163q-15 0 -15 15v67q-37 -90 -129 -90q-80 0 -130 70.5t-50 179.5q0 108 50 178t130 70q94 0 129 -86v61q0 15 15 15h163zM281 143q27 0 40.5 27t13.5 71q0 96 -54 96t-54 -96q0 -44 13.5 -71t40.5 -27z" />
    <glyph glyph-name="b" unicode="b" horiz-adv-x="568" 
d="M361 490q53 0 94 -32.5t63 -88.5t22 -127q0 -109 -50 -179.5t-129 -70.5q-93 0 -129 90v-67q0 -15 -14 -15h-160q-15 0 -15 15v716q0 14 15 14h160q14 0 14 -14v-327q36 86 129 86zM288 143q27 0 40.5 27t13.5 71q0 96 -54 96t-54 -96q0 -44 13.5 -71t40.5 -27z" />
    <glyph glyph-name="c" unicode="c" horiz-adv-x="423" 
d="M271 -8q-38 0 -73.5 10.5t-66 31.5t-53.5 50t-36.5 69.5t-13.5 87.5q0 77 34.5 134.5t89.5 85.5t120 28t104 -15q13 -4 13 -20v-103q0 -19 -13 -19q-5 0 -13 3q-21 8 -46 8q-38 0 -63.5 -28.5t-25.5 -74.5q0 -47 25.5 -74t63.5 -27q27 0 50 9q9 4 15 4q11 0 11 -18v-103
q0 -15 -12 -20q-46 -19 -110 -19z" />
    <glyph glyph-name="d" unicode="d" horiz-adv-x="568" 
d="M510 745q15 0 15 -14v-716q0 -15 -15 -15h-160q-14 0 -14 15v67h-1q-36 -90 -128 -90q-79 0 -129 70.5t-50 179.5q0 108 49.5 178t129.5 70q93 0 128 -86h1v327q0 14 14 14h160zM280 143q27 0 40.5 27t13.5 71q0 96 -54 96t-54 -96q0 -21 3 -39t9.5 -31t17 -20.5
t24.5 -7.5z" />
    <glyph glyph-name="e" unicode="e" horiz-adv-x="520" 
d="M494 254q0 -37 -5.5 -47t-20.5 -10h-238q20 -62 105 -62q61 0 115 25q8 4 14 4q12 0 12 -20v-89q0 -15 -11 -23q-27 -17 -72 -28t-95 -11q-122 0 -196 67t-74 179t71.5 181.5t178.5 69.5q94 0 155 -59t61 -177zM272 361q-38 0 -48 -61h93q-5 61 -45 61z" />
    <glyph glyph-name="f" unicode="f" horiz-adv-x="395" 
d="M375 480q15 0 15 -15v-106q0 -15 -15 -15h-100v-329q0 -15 -15 -15h-167q-14 0 -14 15v329h-57q-14 0 -14 15v106q0 15 14 15h57v53q0 110 53 166.5t154 56.5q49 0 90 -12q14 -5 14 -20v-103q0 -27 -30 -23q-11 2 -22 2q-63 0 -63 -70v-50h100z" />
    <glyph glyph-name="g" unicode="g" horiz-adv-x="565" 
d="M512 480q15 0 15 -15v-380q0 -47 -11 -87.5t-31.5 -71t-48 -54t-62 -38t-73 -22.5t-81.5 -8q-89 0 -146 24q-13 6 -13 21v108q0 21 14 21q5 0 13 -3q58 -24 119 -24q51 0 83 28t32 81v22q-40 -54 -117 -54q-76 0 -126.5 64.5t-50.5 168.5q0 102 52 165t125 63
q82 0 123 -63h1v39q0 15 15 15h168zM276.5 169q27.5 0 40.5 25t13 65q0 88 -53.5 88t-53.5 -88q0 -41 13 -65.5t40.5 -24.5z" />
    <glyph glyph-name="h" unicode="h" horiz-adv-x="563" 
d="M362 490q75 0 118.5 -42.5t43.5 -135.5v-298q0 -14 -14 -14h-170q-14 0 -14 14v266q0 52 -43 52q-44 0 -44 -57v-261q0 -14 -14 -14h-168q-14 0 -14 14v718q0 13 14 13h160q13 0 13 -13v-303q43 61 132 61z" />
    <glyph glyph-name="i" unicode="i" horiz-adv-x="282" 
d="M141 527q-52 0 -83 32.5t-31 80.5q0 49 31 81.5t83 32.5t82.5 -32.5t30.5 -81.5t-30.5 -81t-82.5 -32zM58 0q-15 0 -15 15v450q0 15 15 15h166q15 0 15 -15v-450q0 -15 -15 -15h-166z" />
    <glyph glyph-name="j" unicode="j" horiz-adv-x="284" 
d="M143 527q-52 0 -83 32.5t-31 80.5q0 32 13.5 57.5t40 41t60.5 15.5q52 0 82.5 -32.5t30.5 -81.5t-30.5 -81t-82.5 -32zM40 -196q-41 0 -73 10q-13 4 -13 19v125q0 13 13 9q12 -4 27 -4q23 0 36.5 14.5t13.5 37.5v450q0 15 15 15h167q14 0 14 -15v-451q0 -104 -51 -157
t-149 -53z" />
    <glyph glyph-name="k" unicode="k" horiz-adv-x="571" 
d="M568 13q2 -4 2 -7q0 -6 -10 -6h-198q-15 0 -21 13l-99 214v-212q0 -15 -14 -15h-167q-14 0 -14 15v716q0 14 14 14h167q14 0 14 -14v-443l97 179q7 13 22 13h199q14 0 6 -12l-147 -208z" />
    <glyph glyph-name="l" unicode="l" horiz-adv-x="332" 
d="M210 -10q-80 0 -123.5 38.5t-43.5 116.5v586q0 15 15 15h166q15 0 15 -15v-545q0 -42 37 -42q16 0 32 6q6 3 10 3q7 0 7 -12v-108q0 -21 -17 -28q-42 -15 -98 -15z" />
    <glyph glyph-name="m" unicode="m" horiz-adv-x="831" 
d="M635 490q35 0 64 -11.5t49.5 -32.5t32.5 -53t12 -72v-306q0 -15 -15 -15h-167q-14 0 -14 15v273q0 47 -40 47q-41 0 -41 -49v-271q0 -15 -14 -15h-167q-15 0 -15 15v273q0 47 -40 47q-41 0 -41 -49v-271q0 -15 -15 -15h-166q-15 0 -15 15v450q0 15 15 15h145q14 0 14 -15
v-57h1q42 82 144 82q44 0 79.5 -20t55.5 -56q42 76 138 76z" />
    <glyph glyph-name="n" unicode="n" horiz-adv-x="561" 
d="M357 490q76 0 120.5 -42.5t44.5 -130.5v-302q0 -15 -14 -15h-167q-15 0 -15 15v273q0 56 -42 56q-45 0 -45 -58v-271q0 -15 -15 -15h-166q-15 0 -15 15v450q0 15 15 15h150q15 0 15 -15v-39h1q43 64 133 64z" />
    <glyph glyph-name="o" unicode="o" horiz-adv-x="546" 
d="M273 -10q-104 0 -174.5 71.5t-70.5 180.5t70 178t175 69t175 -69t70 -178t-70 -180.5t-175 -71.5zM273 143q27 0 40.5 27t13.5 71q0 96 -54 96t-54 -96q0 -44 13.5 -71t40.5 -27z" />
    <glyph glyph-name="p" unicode="p" horiz-adv-x="563" 
d="M356 490q79 0 129 -70.5t50 -177.5q0 -109 -50 -179.5t-130 -70.5t-118 68v-231q0 -14 -14 -14h-165q-15 0 -15 14v636q0 15 15 15h153q15 0 15 -15v-66h1q36 91 129 91zM283 142q14 0 24.5 7.5t17 21t9.5 31t3 38.5q0 45 -13.5 70.5t-40.5 25.5q-53 0 -53 -95
q0 -45 13 -72t40 -27z" />
    <glyph glyph-name="q" unicode="q" horiz-adv-x="561" 
d="M504 480q14 0 14 -15v-636q0 -14 -14 -14h-166q-14 0 -14 14v226q-38 -63 -117 -63q-81 0 -130 70.5t-49 179.5q0 108 49 178t129 70q92 0 130 -85h1v60q0 15 14 15h153zM277.5 141q27.5 0 41 27.5t13.5 72.5q0 97 -54 97q-55 0 -55 -98q0 -45 13.5 -72t41 -27z" />
    <glyph glyph-name="r" unicode="r" horiz-adv-x="400" 
d="M362 490v-1h2q13 0 13 -14v-176q0 -11 -11 -11h-34q-43 -2 -68.5 -30t-25.5 -85v-158q0 -15 -15 -15h-166q-14 0 -14 15v450q0 15 14 15h156q14 0 14 -15v-83h3q37 101 132 108z" />
    <glyph glyph-name="s" unicode="s" horiz-adv-x="415" 
d="M182 -7q-94 0 -150 29q-7 3 -7 12v124q0 14 13 7q20 -11 45.5 -19t47 -11.5t38.5 -3.5q43 0 43 25q0 11 -12 17t-52 19q-28 9 -47 18t-39 25t-30 40.5t-10 57.5q0 77 60 117t153 40q74 0 127 -19q7 -3 7 -11l1 -111q0 -14 -14 -9q-48 17 -90 17q-46 0 -46 -23
q0 -10 10.5 -15.5t46.5 -16.5q58 -17 91 -47t33 -88q0 -77 -60 -125.5t-159 -48.5z" />
    <glyph glyph-name="t" unicode="t" horiz-adv-x="376" 
d="M347 354h-79v-173q0 -48 45 -48q10 0 19 1q29 4 29 -22v-91q0 -15 -14 -19q-45 -12 -95 -12q-180 0 -180 176v188h-55q-15 0 -15 14v97q0 15 15 15h55v144q0 14 15 14h167q14 0 14 -14v-144h79q14 0 14 -15v-97q0 -14 -14 -14z" />
    <glyph glyph-name="u" unicode="u" horiz-adv-x="559" 
d="M501 480q15 0 15 -15v-450q0 -15 -15 -15h-146q-15 0 -17 14l-6 50h-1q-42 -73 -136 -73q-156 0 -156 185v290q0 15 15 15l166 -1q15 0 15 -15v-282q0 -60 43 -60q42 0 42 63v279q0 15 14 15h167z" />
    <glyph glyph-name="v" unicode="v" horiz-adv-x="543" 
d="M525 480q15 0 10 -14l-170 -452q-5 -14 -20 -14h-148q-14 0 -19 14l-170 452q-1 4 -1 6q0 8 11 8h189q14 0 18 -14l55 -240l59 240q3 14 18 14h168z" />
    <glyph glyph-name="w" unicode="w" horiz-adv-x="713" 
d="M698 480q15 0 11 -14l-141 -452q-4 -14 -19 -14h-120q-15 0 -19 14l-55 212l-54 -212q-3 -14 -18 -14h-120q-14 0 -19 14l-140 452q-1 3 -1 5q0 9 11 9h166q14 0 18 -14l43 -197l49 197q4 14 18 14h109q15 0 18 -14l55 -205l36 205q3 14 18 14h154z" />
    <glyph glyph-name="x" unicode="x" horiz-adv-x="526" 
d="M513 25q6 -9 6 -14q0 -11 -19 -11h-180q-15 0 -21 13l-46 100l-46 -100q-7 -13 -21 -13h-169q-19 0 -19 11q0 6 6 14l141 217l-144 213q-5 8 -5 14q0 11 19 11h174q15 0 21 -13l46 -99l45 99q6 13 21 13h166q20 0 20 -11q0 -6 -6 -14l-138 -215z" />
    <glyph glyph-name="y" unicode="y" horiz-adv-x="529" 
d="M514 480q15 0 10 -14l-168 -443q-43 -113 -98.5 -166t-144.5 -53q-59 0 -102 11q-14 4 -14 19v118q0 14 14 10q44 -11 85 -11q35 0 55.5 14t34.5 43l-187 458q-1 4 -1 7q0 7 10 7h172q15 0 19 -14l66 -211l68 211q4 14 19 14h162z" />
    <glyph glyph-name="z" unicode="z" horiz-adv-x="457" 
d="M40 0q-15 0 -15 15v27q0 15 7 28l145 253h-127q-14 0 -14 14v128q0 15 14 15h357q15 0 15 -15v-27q0 -15 -8 -28l-146 -252h147q15 0 15 -15v-128q0 -15 -15 -15h-375z" />
    <glyph glyph-name="braceleft" unicode="{" horiz-adv-x="331" 
d="M270 615q-23 0 -36 -11.5t-13 -32.5q0 -23 30.5 -96.5t30.5 -105.5q0 -42 -34 -73.5t-97 -39.5q63 -8 97 -39.5t34 -73.5q0 -33 -30.5 -106t-30.5 -96q0 -21 13 -32.5t36 -11.5h18h2q13 0 13 -13v-57q0 -15 -13 -21q-33 -14 -84 -14q-32 0 -58 7t-44 19t-30.5 28t-18 34
t-5.5 37q0 32 17 74.5t34 80.5t17 58q0 55 -63 65q-14 2 -14 16v90q0 14 15 16q62 10 62 65q0 20 -17 58t-34 80.5t-17 74.5q0 52 39.5 88.5t116.5 36.5q51 0 84 -14q13 -6 13 -21v-57q0 -13 -13 -13h-10h-10z" />
    <glyph glyph-name="bar" unicode="|" horiz-adv-x="201" 
d="M49 -200q-14 0 -14 15v1010q0 15 14 15h102q15 0 15 -15v-1010q0 -15 -15 -15h-102z" />
    <glyph glyph-name="braceright" unicode="}" horiz-adv-x="331" 
d="M283 317q15 -2 15 -16v-90q0 -14 -15 -16q-62 -10 -62 -65q0 -20 17 -58t34 -80.5t17 -74.5q0 -52 -39.5 -88.5t-116.5 -36.5q-51 0 -84 14q-13 6 -13 21v57q0 13 13 13h10h10q23 0 36 11.5t13 32.5q0 23 -30.5 96t-30.5 106q0 27 14 50.5t44.5 40.5t72.5 22
q-63 8 -97 39.5t-34 73.5q0 32 30.5 105.5t30.5 96.5q0 21 -13 32.5t-36 11.5h-18h-2q-13 0 -13 13v57q0 15 13 21q33 14 84 14q77 0 116.5 -36.5t39.5 -88.5q0 -32 -17 -75t-34 -80.5t-17 -57.5q0 -55 62 -65z" />
    <glyph glyph-name="asciitilde" unicode="~" horiz-adv-x="617" 
d="M407 203q-50 0 -122 44q-50 31 -74 31q-38 0 -47 -55q-2 -14 -16 -14h-85q-14 0 -14 14q5 91 42 146.5t104 55.5q20 0 42 -7t35 -14t36 -21q53 -32 79 -32q17 0 27.5 14t12.5 37q1 15 14 15h90q15 0 14 -15q-1 -58 -18 -103t-48 -70.5t-72 -25.5z" />
    <glyph glyph-name="nbspace" unicode="&#xa0;" horiz-adv-x="185" 
 />
    <glyph glyph-name="exclamdown" unicode="&#xa1;" horiz-adv-x="285" 
d="M144 720q43 0 71 -31t28 -74q0 -28 -12.5 -52t-35.5 -38.5t-51 -14.5q-29 0 -52 14.5t-35.5 38.5t-12.5 52q0 43 28.5 74t71.5 31zM77 445q1 15 16 15h99q15 0 16 -15l41 -430q1 -1 1 -2q0 -13 -14 -13h-187q-15 0 -13 15z" />
    <glyph glyph-name="cent" unicode="&#xa2;" horiz-adv-x="423" 
d="M367 275q9 4 15 4q11 0 11 -19v-102q0 -15 -12 -20q-45 -19 -107 -19l-13 -128q-2 -14 -16 -14h-67q-15 0 -13 14l14 144q-67 26 -109 86.5t-42 146.5q0 40 10 76t27.5 63.5t41.5 49t53 35t61 19.5l11 108q1 14 16 14h66q15 0 13 -14l-10 -105q36 -4 59 -13q13 -5 13 -20
v-103q0 -19 -13 -19q-5 0 -13 3q-21 8 -46 8q-38 0 -63.5 -28.5t-25.5 -74.5q0 -19 4.5 -35t13 -28t19.5 -20.5t24.5 -13t27.5 -4.5q27 0 50 9z" />
    <glyph glyph-name="sterling" unicode="&#xa3;" horiz-adv-x="518" 
d="M410 553q-44 0 -70.5 -26.5t-30.5 -79.5l-1 -23h140q14 0 14 -15v-117q0 -14 -14 -14h-150l-9 -121h187q15 0 15 -15v-127q0 -15 -15 -15h-435q-14 0 -14 15v127q0 15 14 15h49l10 121h-56q-14 0 -14 14v117q0 15 14 15h68l4 50q10 119 78.5 182.5t173.5 63.5
q64 0 109 -12q14 -4 14 -19v-135q0 -14 -14 -11q-36 10 -67 10z" />
    <glyph glyph-name="currency" unicode="&#xa4;" horiz-adv-x="520" 
d="M515 79q3 -4 3 -9q0 -6 -7 -11l-53 -37q-5 -3 -9 -3q-7 0 -11 7l-84 122q-42 -25 -95 -25q-56 0 -100 28l-86 -125q-5 -7 -11 -7q-4 0 -9 3l-53 37q-7 5 -7 11q0 5 3 9l98 145q-35 63 -35 146q0 87 36 151l-99 144q-3 5 -3 9q0 7 7 11l54 37q4 3 9 3q6 0 11 -7l88 -127
q42 27 97 27q52 0 93 -24l85 124q5 7 11 7q5 0 9 -3l54 -37q7 -5 7 -11q0 -4 -3 -9l-95 -139q39 -64 39 -156q0 -88 -38 -152zM259 260q15 0 27 7.5t20 22.5t12 35t4 45q0 34 -7 58.5t-21.5 38t-34.5 13.5q-30 0 -46 -29.5t-16 -80.5t16 -80.5t46 -29.5z" />
    <glyph glyph-name="yen" unicode="&#xa5;" horiz-adv-x="612" 
d="M601 711q20 0 20 -14q0 -5 -4 -13l-173 -342h66q14 0 14 -15v-126q0 -14 -14 -14h-99v-172q0 -15 -15 -15h-179q-15 0 -15 15v172h-99q-15 0 -15 14v126q0 15 15 15h65l-175 342q-4 8 -4 14q0 13 20 13h177q14 0 20 -14l109 -261l101 261q6 14 20 14h165z" />
    <glyph glyph-name="brokenbar" unicode="&#xa6;" horiz-adv-x="201" 
d="M49 420q-14 0 -14 15v390q0 15 14 15h102q15 0 15 -15v-390q0 -15 -15 -15h-102zM49 -200q-14 0 -14 15v390q0 15 14 15h102q15 0 15 -15v-390q0 -15 -15 -15h-102z" />
    <glyph glyph-name="section" unicode="&#xa7;" horiz-adv-x="561" 
d="M466 258q34 -50 51 -95t17 -97q0 -120 -82 -197t-219 -77q-91 0 -166 28q-13 6 -13 21v130q0 15 13 10q78 -30 185 -30q52 0 90 9l-223 340q-20 31 -29.5 47t-24 45.5t-21 59t-6.5 63.5q0 74 38 130t98.5 83t134.5 27q91 0 169 -25q14 -4 14 -19v-132q0 -14 -14 -11
q-18 5 -39.5 9.5t-43 8t-43.5 5.5t-41.5 3.5t-35.5 1.5q-17 0 -33 -2zM404 -16q52 34 52 105q0 32 -12.5 60.5t-39.5 71.5l-229 356q-61 -29 -61 -90q0 -25 10.5 -53t20.5 -45.5t34 -55.5z" />
    <glyph glyph-name="dieresis" unicode="&#xa8;" horiz-adv-x="600" 
d="M-47 578q-34 0 -56.5 24.5t-22.5 57.5q0 34 22.5 58t56.5 24q13 0 25 -4.5t21.5 -12t16.5 -17.5t10.5 -22.5t3.5 -25.5q0 -33 -22 -57.5t-55 -24.5zM144 578q-34 0 -56.5 24.5t-22.5 57.5q0 34 22.5 58t56.5 24q22 0 40 -11.5t27.5 -30t9.5 -40.5q0 -33 -22 -57.5
t-55 -24.5z" />
    <glyph glyph-name="copyright" unicode="&#xa9;" horiz-adv-x="693" 
d="M346.5 -11q-63.5 0 -121 26.5t-100 73.5t-67.5 115t-25 147q0 81 25.5 150.5t68.5 117t100 74.5t119.5 27t119.5 -27t100 -74.5t68.5 -117t25.5 -150.5q0 -79 -25 -147t-68 -115t-100 -73.5t-120.5 -26.5zM346.5 29q112.5 0 192.5 90t80 232q0 146 -79.5 238t-193 92
t-193 -92t-79.5 -238q0 -142 80 -232t192.5 -90zM359 130q-83 0 -138.5 60.5t-55.5 163t55.5 163.5t137.5 61q43 0 78 -12q13 -4 13 -18v-97q0 -13 -12 -6q-24 14 -55 14q-22 0 -39 -13t-25.5 -36.5t-8.5 -54.5q0 -48 20.5 -76t52 -28t60.5 16q4 2 7 2q5 0 5 -9v-90
q0 -14 -12 -20q-37 -20 -83 -20z" />
    <glyph glyph-name="ordfeminine" unicode="&#xaa;" horiz-adv-x="489" 
d="M177 342q-65 0 -104 53.5t-39 135.5q0 53 17 95.5t50 67t76 24.5q55 0 84 -43v23q0 13 13 13h136q13 0 13 -13v-338q0 -13 -13 -13h-136q-13 0 -13 13v28q-30 -46 -84 -46zM232 594q-33 0 -33 -65q0 -67 33 -67q29 0 32 55v22q-2 55 -32 55zM416 267q14 0 14 -15v-68
q0 -15 -14 -15h-357q-15 0 -15 15v68q0 15 15 15h357z" />
    <glyph glyph-name="guillemetleft" unicode="&#xab;" horiz-adv-x="707" 
d="M266 15q-5 -5 -9 -5q-5 0 -10 6l-208 264q-4 6 -4 12t5 11l207 244q4 6 10 6q5 0 10 -5l84 -75q6 -6 6 -12q0 -5 -3 -10l-112 -159l112 -159q3 -6 3 -11q0 -6 -5 -12zM547 15q-5 -5 -10 -5t-9 6l-208 264q-4 6 -4 12t5 11l206 244q5 6 11 6q5 0 10 -4l84 -76q6 -6 6 -12
q0 -5 -4 -10l-112 -159l112 -159q4 -6 4 -11q0 -6 -5 -12z" />
    <glyph glyph-name="logicalnot" unicode="&#xac;" horiz-adv-x="617" 
d="M526 461q15 0 15 -14v-292q0 -15 -15 -15h-138q-15 0 -15 15v154h-304q-14 0 -14 15v123q0 14 14 14h457z" />
    <glyph glyph-name="softhyphen" unicode="&#xad;" horiz-adv-x="495" 
d="M96 181q-14 0 -14 15v126q0 14 14 14h302q15 0 15 -14v-126q0 -15 -15 -15h-302z" />
    <glyph glyph-name="registered" unicode="&#xae;" horiz-adv-x="453" 
d="M226 720q72 0 120.5 -54t48.5 -139q0 -86 -47.5 -139.5t-121.5 -53.5q-73 0 -120.5 53.5t-47.5 139.5q0 85 48 139t120 54zM226 363q60 0 99 45.5t39 118.5q0 37 -10.5 67.5t-28.5 51.5t-43.5 33t-55.5 12q-59 0 -98 -45.5t-39 -118.5t39 -118.5t98 -45.5zM263 517
l46 -65q2 -4 2 -7q0 -4 -8 -4h-38q-13 0 -20 11l-33 55v-53q0 -13 -13 -13h-26q-13 0 -13 13v159q0 13 13 13h49q36 0 57 -15t21 -41q0 -40 -37 -53zM218 587h-6v-48h5q26 0 26 25q0 23 -25 23z" />
    <glyph glyph-name="macron" unicode="&#xaf;" horiz-adv-x="600" 
d="M-151 582q-15 0 -15 14v94q0 14 15 14h302q14 0 14 -14v-94q0 -14 -14 -14h-302z" />
    <glyph glyph-name="degree" unicode="&#xb0;" horiz-adv-x="432" 
d="M216 389q-73 0 -126 47t-53 118q0 73 52.5 119.5t126.5 46.5q49 0 89.5 -20.5t65 -59t24.5 -86.5q0 -47 -24.5 -85t-65.5 -59t-89 -21zM216 493q24 0 39 17t15 44q0 18 -7 32t-19 21.5t-28 7.5q-24 0 -39 -17t-15 -44t15 -44t39 -17z" />
    <glyph glyph-name="plusminus" unicode="&#xb1;" horiz-adv-x="617" 
d="M69 408q-14 0 -14 15v126q0 14 14 14h152v118q0 14 14 14h126q15 0 15 -14v-118h150q15 0 15 -14v-126q0 -15 -15 -15h-150v-119q0 -14 -15 -14h-126q-14 0 -14 14v119h-152zM567 192q14 0 14 -15v-126q0 -14 -14 -14h-517q-15 0 -15 14v126q0 15 15 15h517z" />
    <glyph glyph-name="twosuperior" unicode="&#xb2;" horiz-adv-x="347" 
d="M296 556q15 0 15 -15v-63q0 -15 -15 -15h-250q-13 0 -6 11l104 159q2 3 5 8q9 13 13 19.5t9.5 16.5t7.5 17.5t2 14.5q0 9 -3 16.5t-8.5 13t-14 9t-18.5 5.5t-22 2q-27 0 -54 -9q-3 -1 -5 -1q-8 0 -8 11v64q0 15 13 19q35 10 90 10q69 0 109.5 -29.5t40.5 -83.5
q0 -24 -11.5 -48.5t-37.5 -61.5l-48 -70h92z" />
    <glyph glyph-name="threesuperior" unicode="&#xb3;" horiz-adv-x="335" 
d="M218 671q46 -10 68.5 -34t22.5 -57q0 -55 -52 -87.5t-126 -32.5q-53 0 -84 9q-14 5 -14 20v60q0 14 14 10q32 -8 65 -8t52.5 9t19.5 24q0 31 -74 31h-17q-15 0 -15 15v56q0 15 15 15h17q71 0 71 32q0 15 -18.5 23t-48.5 8q-35 0 -62 -9q-3 -1 -6 -1q-8 0 -8 11v58
q0 15 14 18q37 10 84 10q72 0 113 -26t41 -71q0 -58 -72 -83z" />
    <glyph glyph-name="acute" unicode="&#xb4;" horiz-adv-x="600" 
d="M183 542q-15 0 -9 13l92 211q5 13 19 9l127 -41q15 -5 15 -15q0 -6 -6 -14l-115 -151q-9 -12 -24 -12h-99z" />
    <glyph glyph-name="micro" unicode="&#xb5;" horiz-adv-x="558" 
d="M501 480q15 0 15 -15v-450q0 -15 -15 -15h-138q-14 0 -17 15l-7 43h-3q-25 -67 -81 -67q-23 0 -41 9l19 -171v-2q0 -13 -13 -13h-168q-15 0 -14 15l17 220l-16 416v1q0 14 15 14h166q15 0 15 -15v-282q0 -61 42.5 -61t42.5 67v276q0 15 15 15h166z" />
    <glyph glyph-name="paragraph" unicode="&#xb6;" horiz-adv-x="647" 
d="M412 710q15 0 15 -15v-601q0 -69 -22 -138.5t-65 -129.5q-8 -12 -23 -12h-89q-14 0 -5 12q49 59 74 129t25 139v130h-11q-48 0 -93.5 17t-81.5 47t-58 77t-22 102q0 56 22 102.5t58 77t81.5 47t93.5 16.5h101zM587 323v-4.5v-5.5q0 -72 -26.5 -144t-68.5 -121
q-4 -5 -6 -5q-4 0 -4 8v644q0 15 15 15h75q15 0 15 -15v-372z" />
    <glyph glyph-name="periodcentered" unicode="&#xb7;" horiz-adv-x="268" 
d="M135 137q-29 0 -52 15t-36 38.5t-13 51.5q0 43 28.5 74t72.5 31q43 0 71 -31t28 -74t-28 -74t-71 -31z" />
    <glyph glyph-name="cedilla" unicode="&#xb8;" horiz-adv-x="584" 
d="M87 -29q31 -6 50.5 -25.5t19.5 -49.5q0 -40 -34.5 -65t-92.5 -25q-40 0 -65 7q-12 4 -12 18v44q0 13 12 10q26 -7 48 -7q32 0 32 18q0 9 -10.5 14.5t-27.5 5.5q-14 0 -27 -4l-3 4l52 104h85z" />
    <glyph glyph-name="onesuperior" unicode="&#xb9;" horiz-adv-x="309" 
d="M236 846q14 0 14 -15v-353q0 -15 -14 -15h-90q-15 0 -15 15v234l-64 -23q-3 -1 -5 -1q-8 0 -8 11v70q0 15 13 21l121 51q12 5 25 5h23z" />
    <glyph glyph-name="ordmasculine" unicode="&#xba;" horiz-adv-x="456" 
d="M227 344q-83 0 -138 53.5t-55 136.5q0 55 25 97.5t69 65.5t99 23q56 0 100 -23t69.5 -65.5t25.5 -97.5q0 -54 -25.5 -97.5t-70 -68t-99.5 -24.5zM228 469q33 0 33 64q0 63 -33 63t-33 -63q0 -64 33 -64zM64 173q-13 0 -13 13v71q0 13 13 13h328q13 0 13 -13v-71
q0 -13 -13 -13h-328z" />
    <glyph glyph-name="guillemetright" unicode="&#xbb;" horiz-adv-x="707" 
d="M179 16q-4 -6 -9 -6t-10 5l-86 95q-5 6 -5 12q0 5 4 11l112 159l-112 159q-4 5 -4 10q0 6 6 12l84 76q5 4 10 4q6 0 11 -6l206 -244q5 -5 5 -11t-4 -12zM460 16q-4 -6 -9 -6t-10 5l-86 95q-5 6 -5 12q0 5 3 11l113 159l-113 159q-3 5 -3 10q0 6 6 12l84 76q5 4 10 4
q6 0 11 -6l206 -244q5 -5 5 -11t-4 -12z" />
    <glyph glyph-name="onequarter" unicode="&#xbc;" horiz-adv-x="742" 
d="M657 716q8 -5 8 -11q0 -4 -3 -9l-468 -709q-5 -7 -12 -7q-4 0 -9 3l-39 24q-7 4 -7 11q0 4 3 8l468 708q5 7 12 7q4 0 9 -3zM131 348v234l-64 -23q-3 -1 -5 -1q-8 0 -8 11v70q0 15 13 20l121 52q12 5 25 5h23q14 0 14 -15v-353q0 -15 -14 -15h-90q-15 0 -15 15zM714 137
q14 0 14 -15v-54q0 -15 -14 -15h-30v-38q0 -15 -15 -15h-78q-15 0 -15 15v38h-145q-13 0 -13 13v62q0 13 8 23l154 219q8 11 21 11h68q15 0 15 -15v-229h30zM581 229h-1l-67 -92h67z" />
    <glyph glyph-name="onehalf" unicode="&#xbd;" horiz-adv-x="802" 
d="M657 716q8 -5 8 -11q0 -4 -3 -9l-468 -709q-5 -7 -12 -7q-4 0 -9 3l-39 24q-7 4 -7 11q0 4 3 8l468 708q5 7 12 7q4 0 9 -3zM131 348v234l-64 -23q-3 -1 -5 -1q-8 0 -8 11v70q0 15 13 20l121 52q12 5 25 5h23q14 0 14 -15v-353q0 -15 -14 -15h-90q-15 0 -15 15zM751 92
q14 0 14 -14v-63q0 -15 -14 -15h-250q-13 0 -6 11l104 159q2 2 5 7q32 49 32 69q0 14 -8 24.5t-23 16t-35 5.5q-27 0 -54 -9q-3 -1 -5 -1q-8 0 -8 11v64q0 15 13 19q35 10 90 10q69 0 109.5 -30t40.5 -83q0 -24 -11.5 -48.5t-37.5 -61.5l-48 -71h92z" />
    <glyph glyph-name="threequarters" unicode="&#xbe;" horiz-adv-x="733" 
d="M648 716q7 -5 7 -11q0 -4 -3 -9l-468 -709q-5 -7 -11 -7q-5 0 -9 3l-39 24q-7 4 -7 11q0 4 3 8l467 708q5 7 12 7q5 0 9 -3zM309 450q0 -55 -52 -87.5t-126 -32.5q-53 0 -84 9q-14 4 -14 20v60q0 14 14 10q32 -8 65 -8t52.5 9t19.5 24q0 31 -74 31h-17q-15 0 -15 15v56
q0 15 15 15h17q71 0 71 32q0 15 -18.5 23t-48.5 8q-35 0 -62 -9q-3 -1 -6 -1q-8 0 -8 11v58q0 15 14 18q37 10 84 10q72 0 113 -26t41 -71q0 -58 -72 -83q46 -10 68.5 -34t22.5 -57zM704 137q15 0 15 -15v-54q0 -15 -15 -15h-29v-38q0 -15 -15 -15h-78q-15 0 -15 15v38h-145
q-13 0 -13 13v62q0 13 7 23l155 219q7 11 20 11h69q15 0 15 -15v-229h29zM571 229h-1l-67 -92h68v92z" />
    <glyph glyph-name="questiondown" unicode="&#xbf;" horiz-adv-x="455" 
d="M270 720q43 0 72 -29t29 -67q0 -26 -12.5 -48t-36 -35.5t-52.5 -13.5q-22 0 -40.5 8t-31.5 21t-20.5 30.5t-7.5 37.5q0 38 28.5 67t71.5 29zM312 493q28 0 30 -29l5 -109v-1q0 -13 -13 -17q-97 -29 -97 -96q0 -18 7 -33t20 -26t31 -17.5t39 -6.5q36 0 68 10q7 2 12 2
q16 0 16 -22v-99q0 -32 -28 -40q-51 -16 -122 -16q-56 0 -102.5 16t-78.5 43.5t-50 66.5t-18 85q0 71 44.5 124t109.5 77l8 60q3 28 31 28h88z" />
    <glyph glyph-name="Agrave" unicode="&#xc0;" horiz-adv-x="677" 
d="M261 775l-122 142q-6 8 -6 12q0 8 16 8l160 -1q15 0 20 -13l54 -145q1 -3 1 -6q0 -8 -11 -8h-88q-14 0 -24 11zM656 14q1 -3 1 -6q0 -8 -11 -8h-193q-14 0 -18 14q-9 35 -19 79h-170q-10 -43 -19 -79q-4 -14 -19 -14h-184q-14 0 -10 14l233 683q5 14 19 14h140
q15 0 19 -14zM279 233h104q-35 145 -52 214q-17 -69 -52 -214z" />
    <glyph glyph-name="Aacute" unicode="&#xc1;" horiz-adv-x="677" 
d="M286 755q-14 0 -9 14l52 145q5 13 20 14h173q15 0 15 -7q0 -5 -7 -12l-131 -143q-10 -11 -25 -11h-88zM656 14q1 -3 1 -6q0 -8 -11 -8h-193q-14 0 -18 14q-9 35 -19 80h-170q-10 -44 -19 -80q-4 -14 -19 -14h-184q-14 0 -10 14l233 683q5 14 19 14h140q15 0 19 -14z
M279 233h104q-35 145 -52 214q-17 -69 -52 -214z" />
    <glyph glyph-name="Acircumflex" unicode="&#xc2;" horiz-adv-x="677" 
d="M172 755q-12 0 -12 7q0 4 3 9l95 146q7 11 20 11h113q13 0 20 -11l95 -146q4 -5 4 -9q0 -7 -13 -7h-93q-13 0 -21 11l-48 60l-48 -60q-8 -11 -21 -11h-94zM656 14q1 -3 1 -6q0 -8 -11 -8h-193q-14 0 -18 14q-9 35 -19 79h-170q-10 -43 -19 -79q-4 -14 -19 -14h-184
q-14 0 -10 14l233 683q5 14 19 14h140q15 0 19 -14zM279 233h104q-35 145 -52 214q-17 -69 -52 -214z" />
    <glyph glyph-name="Atilde" unicode="&#xc3;" horiz-adv-x="677" 
d="M164 774q-13 0 -12 13q6 73 31.5 116.5t74.5 43.5q9 0 18 -2t19.5 -6.5t15.5 -7t16.5 -9.5t13.5 -9q25 -15 37 -15q19 0 25 28q3 12 14 12h71q12 0 12 -13q-5 -72 -31 -116t-74 -44q-8 0 -17 2t-18 6t-15.5 7t-16.5 8.5t-15 8.5q-31 16 -42 16q-22 0 -29 -27
q-3 -12 -15 -12h-63zM656 14q1 -3 1 -6q0 -8 -11 -8h-193q-14 0 -18 14q-9 35 -19 79h-170q-10 -43 -19 -79q-4 -14 -19 -14h-184q-14 0 -10 14l233 683q5 14 19 14h140q15 0 19 -14zM279 233h104q-35 145 -52 214q-17 -69 -52 -214z" />
    <glyph glyph-name="Adieresis" unicode="&#xc4;" horiz-adv-x="677" 
d="M231 771q-31 0 -51.5 22t-20.5 53q0 30 20.5 52t51.5 22q20 0 36 -10t25 -27t9 -37q0 -31 -20 -53t-50 -22zM442 771q-31 0 -51 22t-20 53q0 30 20 52t51 22q20 0 36.5 -10t25 -27t8.5 -37t-8.5 -37t-25 -27.5t-36.5 -10.5zM656 14q1 -3 1 -6q0 -8 -11 -8h-193
q-14 0 -18 14q-9 35 -19 79h-170q-10 -43 -19 -79q-4 -14 -19 -14h-184q-14 0 -10 14l233 683q5 14 19 14h140q15 0 19 -14zM279 233h104q-35 145 -52 214q-17 -69 -52 -214z" />
    <glyph glyph-name="Aring" unicode="&#xc5;" horiz-adv-x="677" 
d="M335 749q-50 0 -87.5 33.5t-37.5 83.5q0 25 10.5 46.5t28 36.5t40 24t46.5 9q51 0 88 -33t37 -83q0 -33 -17.5 -60t-46 -42t-61.5 -15zM335 909q-12 0 -22 -6t-15.5 -15.5t-5.5 -21.5q0 -20 12 -32.5t31 -12.5t31.5 12.5t12.5 32.5q0 19 -12.5 31t-31.5 12zM656 14
q1 -3 1 -6q0 -8 -11 -8h-193q-14 0 -18 14q-9 35 -19 79h-170q-10 -43 -19 -79q-4 -14 -19 -14h-184q-14 0 -10 14l233 683q5 14 19 14h140q15 0 19 -14zM279 233h104q-35 145 -52 214q-17 -69 -52 -214z" />
    <glyph glyph-name="AE" unicode="&#xc6;" horiz-adv-x="876" 
d="M826 551h-196v-112h160q15 0 15 -14v-130q0 -15 -15 -15h-160v-121h196q15 0 15 -15v-129q0 -15 -15 -15h-381q-15 0 -15 15v85h-161l-34 -86q-5 -14 -20 -14h-179q-21 0 -21 15q0 5 3 12l294 670q6 13 20 13h494q15 0 15 -15v-129q0 -15 -15 -15zM327 249h103v263z" />
    <glyph glyph-name="Ccedilla" unicode="&#xc7;" horiz-adv-x="549" 
d="M493 195q9 5 15 5q10 0 10 -18v-135q0 -16 -12 -22q-56 -27 -131 -33l-11 -21q31 -6 50.5 -25.5t19.5 -49.5q0 -40 -34.5 -65t-92.5 -25q-40 0 -65 7q-12 4 -12 18v44q0 13 12 10q26 -7 48 -7q32 0 32 18q0 9 -10.5 14.5t-27.5 5.5q-14 0 -27 -4l-3 4l39 80
q-54 9 -101 38t-82.5 74t-56 108.5t-20.5 137.5q0 84 26 153.5t71.5 115.5t106 71.5t128.5 25.5q74 0 131 -23q14 -6 14 -21v-140q0 -18 -11 -18q-5 0 -14 4q-42 22 -95 22q-69 0 -110.5 -51t-41.5 -136.5t42.5 -136t107.5 -50.5q58 0 105 25z" />
    <glyph glyph-name="Egrave" unicode="&#xc8;" horiz-adv-x="508" 
d="M187 775l-122 142q-6 8 -6 12q0 8 16 8l160 -1q15 0 20 -13l54 -145q1 -3 1 -6q0 -8 -11 -8h-88q-14 0 -24 11zM459 549h-196v-109h159q15 0 15 -15v-131q0 -15 -15 -15h-159v-118h196q14 0 14 -15v-131q0 -15 -14 -15h-388q-15 0 -15 15v680q0 15 15 15h388q14 0 14 -15
v-131q0 -15 -14 -15z" />
    <glyph glyph-name="Eacute" unicode="&#xc9;" horiz-adv-x="508" 
d="M212 755q-14 0 -9 14l52 145q5 13 20 14h173q15 0 15 -7q0 -5 -7 -12l-131 -143q-10 -11 -25 -11h-88zM459 549h-196v-109h159q15 0 15 -15v-131q0 -15 -15 -15h-159v-118h196q14 0 14 -15v-131q0 -15 -14 -15h-388q-15 0 -15 15v680q0 15 15 15h388q14 0 14 -15v-131
q0 -15 -14 -15z" />
    <glyph glyph-name="Ecircumflex" unicode="&#xca;" horiz-adv-x="508" 
d="M98 755q-12 0 -12 7q0 4 3 9l95 146q7 11 21 11h112q13 0 20 -11l95 -146q4 -5 4 -9q0 -7 -13 -7h-93q-13 0 -21 11l-48 60l-48 -60q-8 -11 -21 -11h-94zM459 549h-196v-109h159q15 0 15 -15v-131q0 -15 -15 -15h-159v-118h196q14 0 14 -15v-131q0 -15 -14 -15h-388
q-15 0 -15 15v680q0 15 15 15h388q14 0 14 -15v-131q0 -15 -14 -15z" />
    <glyph glyph-name="Edieresis" unicode="&#xcb;" horiz-adv-x="508" 
d="M157 771q-20 0 -37 10.5t-25.5 27.5t-8.5 37q0 30 20 52t51 22q15 0 28 -6t22.5 -16t14.5 -23.5t5 -28.5q0 -31 -20 -53t-50 -22zM368 771q-31 0 -51 22t-20 53q0 30 20 52t51 22q15 0 28.5 -6t22.5 -16t14 -23.5t5 -28.5q0 -20 -8.5 -37t-25 -27.5t-36.5 -10.5zM459 549
h-196v-109h159q15 0 15 -15v-131q0 -15 -15 -15h-159v-118h196q14 0 14 -15v-131q0 -15 -14 -15h-388q-15 0 -15 15v680q0 15 15 15h388q14 0 14 -15v-131q0 -15 -14 -15z" />
    <glyph glyph-name="Igrave" unicode="&#xcc;" horiz-adv-x="335" 
d="M215 778q2 -3 2 -6q0 -8 -11 -8h-88q-15 0 -24 11l-122 142q-7 8 -7 12q0 8 16 8l161 -1q14 0 20 -14zM75 0q-15 0 -15 15v680q0 15 15 15h185q15 0 15 -15v-680q0 -15 -15 -15h-185z" />
    <glyph glyph-name="Iacute" unicode="&#xcd;" horiz-adv-x="335" 
d="M119 755q-15 0 -10 14l53 145q5 13 19 14h173q16 0 16 -7q0 -5 -7 -12l-132 -143q-9 -11 -24 -11h-88zM75 0q-15 0 -15 15v680q0 15 15 15h185q15 0 15 -15v-680q0 -15 -15 -15h-185z" />
    <glyph glyph-name="Icircumflex" unicode="&#xce;" horiz-adv-x="335" 
d="M338 771q4 -5 4 -9q0 -7 -12 -7h-93q-13 0 -22 11l-47 60l-48 -60q-9 -11 -22 -11h-94q-12 0 -12 7q0 4 4 9l95 146q7 11 20 11h112q13 0 21 -11zM260 710q15 0 15 -15v-680q0 -15 -15 -15h-185q-15 0 -15 15v680q0 15 15 15h185z" />
    <glyph glyph-name="Idieresis" unicode="&#xcf;" horiz-adv-x="335" 
d="M64 771q-31 0 -51.5 22t-20.5 53q0 30 20 52t52 22q15 0 28 -6t22 -16t14.5 -23.5t5.5 -28.5q0 -31 -20 -53t-50 -22zM275 771q-31 0 -51.5 22t-20.5 53q0 30 20.5 52t51.5 22q15 0 28 -6t22 -16t14.5 -23.5t5.5 -28.5q0 -31 -20 -53t-50 -22zM75 0q-15 0 -15 15v680
q0 15 15 15h185q15 0 15 -15v-680q0 -15 -15 -15h-185z" />
    <glyph glyph-name="Eth" unicode="&#xd0;" horiz-adv-x="678" 
d="M244 710q180 0 283 -98t103 -256q0 -159 -103 -257.5t-283 -98.5h-173q-15 0 -15 15v262h-36q-15 0 -15 14v126q0 15 15 15h36v263q0 15 15 15h173zM259 162q82 0 123.5 52t41.5 141q0 59 -17.5 101.5t-55 67t-92.5 24.5l-2 1v-130h73q14 0 14 -15v-100q0 -14 -14 -14
h-73v-129z" />
    <glyph glyph-name="Ntilde" unicode="&#xd1;" horiz-adv-x="700" 
d="M184 774q-13 0 -12 13q5 73 31 116.5t74 43.5q10 0 19 -2t19.5 -6.5t15 -7t16.5 -9.5t14 -9q25 -15 37 -15q19 0 25 28q2 12 14 12h70q13 0 12 -13q-4 -72 -30 -116t-74 -44q-10 0 -22.5 3.5t-19.5 7t-22 11.5t-18 10q-31 16 -43 16q-21 0 -28 -27q-3 -12 -15 -12h-63z
M630 710q14 0 14 -15v-680q0 -15 -14 -15h-130q-15 0 -23 12l-234 350v-347q0 -15 -15 -15h-157q-15 0 -15 15v680q0 15 15 15h130q14 0 22 -12l235 -361v358q0 15 15 15h157z" />
    <glyph glyph-name="Ograve" unicode="&#xd2;" horiz-adv-x="693" 
d="M394 778q1 -3 1 -6q0 -8 -11 -8h-88q-14 0 -24 11l-122 142q-6 8 -6 13q0 7 16 7l160 -1q15 0 20 -13zM346 -8q-63 0 -119.5 25t-100 70.5t-68.5 115t-25 152.5q0 84 25 154t68 115.5t100 70.5t120 25t119.5 -25t100 -70.5t68.5 -115.5t25 -154q0 -83 -25 -152.5
t-68.5 -115t-100 -70.5t-119.5 -25zM346 169q37 0 63 27.5t37 68.5t11 90q0 50 -11 91.5t-37 69t-63 27.5t-62.5 -27.5t-36.5 -69t-11 -91.5q0 -49 11 -90t36.5 -68.5t62.5 -27.5z" />
    <glyph glyph-name="Oacute" unicode="&#xd3;" horiz-adv-x="693" 
d="M297 756q-14 0 -9 13l52 145q5 14 20 14h173q15 0 15 -7q0 -4 -7 -12l-131 -143q-10 -10 -25 -10h-88zM346 -8q-63 0 -119.5 25t-100 70.5t-68.5 115t-25 152.5q0 84 25 154t68 115.5t100 70.5t120 25t119.5 -25t100 -70.5t68.5 -115.5t25 -154q0 -83 -25 -152.5
t-68.5 -115t-100 -70.5t-119.5 -25zM346 169q37 0 63 27.5t37 68.5t11 90q0 50 -11 91.5t-37 69t-63 27.5t-62.5 -27.5t-36.5 -69t-11 -91.5q0 -49 11 -89.5t36.5 -68.5t62.5 -28z" />
    <glyph glyph-name="Ocircumflex" unicode="&#xd4;" horiz-adv-x="693" 
d="M183 756q-12 0 -12 6q0 4 3 10l95 145q7 11 20 11h113q13 0 20 -11l95 -145q4 -6 4 -10q0 -6 -13 -6h-93q-13 0 -21 10l-48 60l-48 -60q-8 -10 -21 -10h-94zM346 720q63 0 119.5 -25t100 -70.5t68.5 -115.5t25 -154q0 -83 -25 -152.5t-68.5 -115t-100 -70.5t-119.5 -25
q-42 0 -81.5 11t-74 32t-63.5 53t-50 71.5t-32.5 89.5t-11.5 106q0 84 25 154t68 115.5t100 70.5t120 25zM346 169q37 0 63 27.5t37 68.5t11 90q0 50 -11 91.5t-37 69t-63 27.5t-62.5 -27.5t-36.5 -69t-11 -91.5q0 -49 11 -90t36.5 -68.5t62.5 -27.5z" />
    <glyph glyph-name="Otilde" unicode="&#xd5;" horiz-adv-x="693" 
d="M282 813q-22 0 -29 -27q-3 -12 -15 -12h-63q-13 0 -12 13q6 73 31.5 116.5t74.5 43.5q9 0 18 -2t19.5 -6.5t15.5 -7t16.5 -9.5t13.5 -8q25 -15 37 -15q19 0 25 27q3 12 14 12h71q12 0 12 -12q-5 -73 -31 -117t-74 -44q-10 0 -22.5 4t-19.5 7t-22 11t-18 10q-31 16 -42 16
zM346 -8q-63 0 -119.5 25t-100 70.5t-68.5 115t-25 152.5q0 84 25 154t68 115.5t100 70.5t120 25t119.5 -25t100 -70.5t68.5 -115.5t25 -154q0 -83 -25 -152.5t-68.5 -115t-100 -70.5t-119.5 -25zM346 169q37 0 63 27.5t37 68.5t11 90q0 50 -11 91.5t-37 69t-63 27.5
t-62.5 -27.5t-36.5 -69t-11 -91.5q0 -49 11 -90t36.5 -68.5t62.5 -27.5z" />
    <glyph glyph-name="Odieresis" unicode="&#xd6;" horiz-adv-x="693" 
d="M242 771q-31 0 -51.5 22t-20.5 53t20.5 52.5t51.5 21.5q30 0 50 -21.5t20 -52.5q0 -30 -20 -52.5t-50 -22.5zM453 771q-31 0 -51 22t-20 53t20 52.5t51 21.5q20 0 36.5 -10t25 -27t8.5 -37q0 -30 -20 -52.5t-50 -22.5zM346 -8q-63 0 -119.5 25t-100 70.5t-68.5 115
t-25 152.5q0 84 25 154t68 115.5t100 70.5t120 25t119.5 -25t100 -70.5t68.5 -115.5t25 -154q0 -83 -25 -152.5t-68.5 -115t-100 -70.5t-119.5 -25zM346 169q37 0 63 27.5t37 68.5t11 90q0 50 -11 91.5t-37 69t-63 27.5t-62.5 -27.5t-36.5 -69t-11 -91.5q0 -49 11 -90
t36.5 -68.5t62.5 -27.5z" />
    <glyph glyph-name="multiply" unicode="&#xd7;" horiz-adv-x="617" 
d="M418 303l139 -139q5 -5 5 -10t-5 -10l-89 -89q-6 -6 -11 -6t-10 6l-139 138l-139 -138q-5 -5 -10 -5t-10 5l-89 89q-5 5 -5 10.5t5 10.5l138 138l-139 139q-5 5 -5 10.5t5 10.5l89 89q5 5 10.5 5t10.5 -5l139 -139l139 139q5 5 10.5 5t10.5 -5l89 -89q5 -5 5 -10.5
t-5 -10.5z" />
    <glyph glyph-name="Oslash" unicode="&#xd8;" horiz-adv-x="693" 
d="M573 615q86 -101 86 -260q0 -83 -25 -152.5t-68.5 -115t-100 -70.5t-119.5 -25q-93 0 -168 51l-27 -40q-8 -12 -23 -12h-70q-11 0 -5 10l66 95q-86 101 -86 259q0 84 25 154t68 115.5t100 70.5t120 25q94 0 169 -52l27 39q8 12 23 12h66q14 0 6 -12zM236 355q0 -42 8 -78
l166 238q-27 28 -64 28t-62.5 -27.5t-36.5 -69t-11 -91.5zM346 169q19 0 35.5 7.5t28.5 20.5t21 30t14.5 38t8.5 43.5t3 46.5q0 43 -8 79l-165 -238q26 -27 62 -27z" />
    <glyph glyph-name="Ugrave" unicode="&#xd9;" horiz-adv-x="675" 
d="M379 778q1 -3 1 -6q0 -8 -11 -8h-88q-14 0 -24 11l-121 142q-7 8 -7 12q0 8 16 8l160 -1q15 0 20 -14zM337 -8q-129 0 -205.5 74.5t-76.5 212.5v417q0 15 15 15h172q14 0 14 -15v-432q0 -49 22 -74.5t61.5 -25.5t61 25.5t21.5 74.5v432q0 15 14 15h169q14 0 14 -15v-417
q0 -138 -76.5 -212.5t-205.5 -74.5z" />
    <glyph glyph-name="Uacute" unicode="&#xda;" horiz-adv-x="675" 
d="M282 755q-14 0 -9 14l52 145q5 13 20 14h173q15 0 15 -7q0 -5 -7 -12l-131 -143q-10 -11 -25 -11h-88zM337 -8q-129 0 -205.5 74.5t-76.5 212.5v417q0 15 15 15h172q14 0 14 -15v-432q0 -49 22 -74.5t61.5 -25.5t61 25.5t21.5 74.5v432q0 15 14 15h169q14 0 14 -15v-417
q0 -138 -76.5 -212.5t-205.5 -74.5z" />
    <glyph glyph-name="Ucircumflex" unicode="&#xdb;" horiz-adv-x="675" 
d="M168 755q-12 0 -12 7q0 4 3 9l95 146q8 11 21 11h112q13 0 20 -11l95 -146q4 -5 4 -9q0 -7 -13 -7h-93q-13 0 -21 11l-48 60l-48 -60q-8 -11 -21 -11h-94zM605 711q14 0 14 -15v-417q0 -138 -76.5 -212.5t-205.5 -74.5t-205.5 74.5t-76.5 212.5v417q0 15 15 15h172
q14 0 14 -15v-432q0 -49 22 -74.5t61.5 -25.5t61 25.5t21.5 74.5v432q0 15 14 15h169z" />
    <glyph glyph-name="Udieresis" unicode="&#xdc;" horiz-adv-x="675" 
d="M227 771q-31 0 -51 22t-20 53q0 30 20 52t51 22q15 0 28.5 -6t22.5 -16t14 -23.5t5 -28.5q0 -31 -20 -53t-50 -22zM438 771q-31 0 -51 22t-20 53q0 30 20 52t51 22q15 0 28.5 -6t22.5 -16t14 -23.5t5 -28.5q0 -31 -20 -53t-50 -22zM337 -8q-129 0 -205.5 74.5
t-76.5 212.5v417q0 15 15 15h172q14 0 14 -15v-432q0 -49 22 -74.5t61.5 -25.5t61 25.5t21.5 74.5v432q0 15 14 15h169q14 0 14 -15v-417q0 -138 -76.5 -212.5t-205.5 -74.5z" />
    <glyph glyph-name="Yacute" unicode="&#xdd;" horiz-adv-x="612" 
d="M258 755q-15 0 -10 14l53 145q5 13 19 14h173q15 0 15 -7q0 -5 -7 -12l-131 -143q-10 -11 -24 -11h-88zM217 0q-15 0 -15 15v260l-209 409q-4 8 -4 14q0 13 20 13h177q14 0 20 -14l109 -261l101 261q6 14 20 14h165q20 0 20 -14q0 -5 -4 -13l-206 -409v-260
q0 -15 -15 -15h-179z" />
    <glyph glyph-name="Thorn" unicode="&#xde;" horiz-adv-x="596" 
d="M277 584q134 0 219.5 -63t85.5 -172q0 -108 -86 -171.5t-225 -63.5h-6v-99q0 -15 -15 -15h-179q-15 0 -15 15v680q0 15 15 15h179q15 0 15 -15v-111h12zM267 262q49 0 76 23.5t27 63.5t-27 63.5t-74 23.5h-4v-174h2z" />
    <glyph glyph-name="germandbls" unicode="&#xdf;" horiz-adv-x="639" 
d="M422 -8q-64 0 -116 20q-13 5 -13 20v105q0 19 12 19q5 0 13 -4q38 -17 73 -17q16 0 27 4.5t16.5 12.5t5.5 19t-4 20.5t-13 18.5t-16.5 15.5t-21 16.5t-21.5 15q-69 55 -69 119q0 24 9 45t27 50q12 19 16 26t9.5 21t5.5 26q0 25 -15 39.5t-41 14.5q-29 0 -46.5 -19
t-17.5 -58v-506q0 -15 -14 -15h-170q-15 0 -15 15v503q0 112 68 174.5t189 62.5q109 0 176.5 -49t67.5 -138q0 -49 -37 -106q-31 -47 -31 -64t14 -32t45 -39q41 -34 65.5 -72t24.5 -88q0 -75 -53.5 -125t-149.5 -50z" />
    <glyph glyph-name="agrave" unicode="&#xe0;" horiz-adv-x="575" 
d="M234 554l-116 151q-6 8 -6 14q0 10 15 15l127 41q4 1 6 1q10 0 14 -10l92 -211q1 -3 1 -6q0 -7 -10 -7h-99q-15 0 -24 12zM515 480q14 0 14 -15v-450q0 -15 -14 -15h-163q-15 0 -15 15v67q-37 -90 -129 -90q-80 0 -130 70.5t-50 179.5q0 108 50 178t130 70q94 0 129 -86
v61q0 15 15 15h163zM281 143q27 0 40.5 27t13.5 71q0 96 -54 96t-54 -96q0 -44 13.5 -71t40.5 -27z" />
    <glyph glyph-name="aacute" unicode="&#xe1;" horiz-adv-x="575" 
d="M228 542q-15 0 -9 13l92 211q6 13 20 9l126 -41q16 -5 16 -15q0 -6 -6 -14l-116 -151q-9 -12 -24 -12h-99zM515 480q14 0 14 -15v-450q0 -15 -14 -15h-163q-15 0 -15 15v67q-37 -90 -129 -90q-80 0 -130 70.5t-50 179.5q0 108 50 178t130 70q94 0 129 -86v61q0 15 15 15
h163zM281 143q27 0 40.5 27t13.5 71q0 96 -54 96t-54 -96q0 -44 13.5 -71t40.5 -27z" />
    <glyph glyph-name="acircumflex" unicode="&#xe2;" horiz-adv-x="575" 
d="M131 543q-13 0 -13 8q0 3 3 9l98 174q6 11 20 11h109q13 0 19 -11l98 -174q3 -6 3 -9q0 -8 -13 -8h-94q-13 0 -20 11l-47 79l-48 -79q-7 -11 -20 -11h-95zM515 480q14 0 14 -15v-450q0 -15 -14 -15h-163q-15 0 -15 15v67q-37 -90 -129 -90q-80 0 -130 70.5t-50 179.5
q0 108 50 178t130 70q94 0 129 -86v61q0 15 15 15h163zM281 143q27 0 40.5 27t13.5 71q0 96 -54 96t-54 -96q0 -44 13.5 -71t40.5 -27z" />
    <glyph glyph-name="atilde" unicode="&#xe3;" horiz-adv-x="575" 
d="M130 558q-12 0 -11 12q5 75 31 119t74 44q9 0 17.5 -1.5t14.5 -4t14.5 -6.5t13 -7t13 -8t11.5 -7q25 -16 37 -16q19 0 25 29q2 12 14 12h70q13 0 12 -13q-4 -73 -30.5 -117.5t-73.5 -44.5q-11 0 -24 4t-18.5 6.5t-22 11.5t-17.5 10q-3 1 -6.5 3t-5.5 3.5t-5 3t-5.5 2.5
l-5 2l-5 2t-5.5 1h-6q-21 0 -28 -28q-3 -12 -14 -12h-64zM515 480q14 0 14 -15v-450q0 -15 -14 -15h-163q-15 0 -15 15v67q-37 -90 -129 -90q-80 0 -130 70.5t-50 179.5q0 108 50 178t130 70q94 0 129 -87v62q0 15 15 15h163zM281 143q27 0 40.5 27t13.5 71q0 96 -54 96
t-54 -96q0 -44 13.5 -71t40.5 -27z" />
    <glyph glyph-name="adieresis" unicode="&#xe4;" horiz-adv-x="575" 
d="M198 578q-34 0 -56.5 24.5t-22.5 57.5q0 34 22.5 58t56.5 24q22 0 39.5 -11.5t27.5 -30t10 -40.5q0 -33 -22 -57.5t-55 -24.5zM389 578q-34 0 -56.5 24.5t-22.5 57.5q0 34 22.5 58t56.5 24q22 0 40 -11.5t27.5 -30t9.5 -40.5q0 -33 -22 -57.5t-55 -24.5zM515 480
q14 0 14 -15v-450q0 -15 -14 -15h-163q-15 0 -15 15v67q-37 -90 -129 -90q-80 0 -130 70.5t-50 179.5q0 108 50 178t130 70q94 0 129 -86v61q0 15 15 15h163zM281 143q27 0 40.5 27t13.5 71q0 96 -54 96t-54 -96q0 -44 13.5 -71t40.5 -27z" />
    <glyph glyph-name="aring" unicode="&#xe5;" horiz-adv-x="575" 
d="M293 522q-50 0 -87.5 34t-37.5 83q0 50 37.5 83t87.5 33t87.5 -33t37.5 -83q0 -33 -18 -60t-46.5 -42t-60.5 -15zM293 682q-19 0 -31.5 -12.5t-12.5 -30.5q0 -20 12 -32.5t31.5 -12.5t32 12.5t12.5 32.5q0 19 -12.5 31t-31.5 12zM515 480q14 0 14 -15v-450q0 -15 -14 -15
h-163q-15 0 -15 15v67q-37 -90 -129 -90q-80 0 -130 70.5t-50 179.5q0 108 50 178t130 70q94 0 129 -86v61q0 15 15 15h163zM281 143q27 0 40.5 27t13.5 71q0 96 -54 96t-54 -96q0 -44 13.5 -71t40.5 -27z" />
    <glyph glyph-name="ae" unicode="&#xe6;" horiz-adv-x="741" 
d="M512.5 490q86.5 0 144.5 -55.5t58 -164.5q0 -31 -6 -58q-3 -14 -19 -14h-231q24 -66 104 -66q68 0 123 33q5 2 7 2q6 0 6 -9v-104q0 -15 -12 -23q-60 -39 -170 -39q-99 0 -159 64q-57 -66 -154 -66q-83 0 -129.5 38t-46.5 106q0 62 43 100t118 47q37 4 82 4
q-16 68 -122 68q-39 0 -75 -17q-5 -2 -7 -2q-6 0 -6 10v103q0 15 13 20q56 23 123 23q111 0 171 -52q58 52 144.5 52zM497 364q-37 0 -45 -64h87q-5 64 -42 64zM235 103q38 0 38 65v35q-17 -3 -29 -6q-42 -9 -42 -52q0 -20 9 -31t24 -11z" />
    <glyph glyph-name="ccedilla" unicode="&#xe7;" horiz-adv-x="423" 
d="M367 148q9 4 15 4q11 0 11 -18v-103q0 -15 -12 -20q-34 -14 -82 -18l-12 -22q32 -6 51.5 -25.5t19.5 -49.5q0 -40 -34.5 -65t-92.5 -25q-40 0 -66 7q-12 4 -12 18v44q0 13 13 10q26 -7 47 -7q33 0 33 18q0 9 -11 14.5t-28 5.5q-13 0 -27 -4l-3 4l41 81q-82 18 -136 82
t-54 162q0 77 34.5 134.5t89.5 85.5t120 28t104 -15q13 -4 13 -20v-103q0 -19 -13 -19q-5 0 -13 3q-21 8 -46 8q-38 0 -63.5 -28.5t-25.5 -74.5q0 -47 25.5 -74t63.5 -27q27 0 50 9z" />
    <glyph glyph-name="egrave" unicode="&#xe8;" horiz-adv-x="522" 
d="M208 555l-116 152q-6 7 -6 14q0 10 15 14l127 41q3 1 6 1q9 0 14 -10l91 -210q2 -4 2 -7q0 -7 -10 -7h-100q-14 0 -23 12zM494 254q0 -37 -5.5 -47t-20.5 -10h-238q20 -62 105 -62q61 0 115 25q8 4 14 4q12 0 12 -20v-89q0 -15 -11 -23q-27 -17 -72 -28t-95 -11
q-122 0 -196 67t-74 179t71.5 181.5t178.5 69.5q94 0 155 -59t61 -177zM272 361q-38 0 -48 -61h93q-5 61 -45 61z" />
    <glyph glyph-name="eacute" unicode="&#xe9;" horiz-adv-x="522" 
d="M202 543q-15 0 -9 14l92 210q5 13 19 9l127 -41q15 -4 15 -14q0 -7 -6 -14l-115 -152q-9 -12 -24 -12h-99zM494 254q0 -37 -5.5 -47t-20.5 -10h-238q20 -62 105 -62q61 0 115 25q8 4 14 4q12 0 12 -20v-89q0 -15 -11 -23q-27 -17 -72 -28t-95 -11q-122 0 -196 67t-74 179
t71.5 181.5t178.5 69.5q94 0 155 -59t61 -177zM272 361q-38 0 -48 -61h93q-5 61 -45 61z" />
    <glyph glyph-name="ecircumflex" unicode="&#xea;" horiz-adv-x="522" 
d="M105 544q-13 0 -13 8q0 4 3 9l98 174q6 12 19 12h110q13 0 19 -12l98 -174q3 -5 3 -9q0 -8 -13 -8h-94q-13 0 -20 12l-47 79l-48 -79q-7 -12 -20 -12h-95zM494 254q0 -37 -5.5 -47t-20.5 -10h-238q20 -62 105 -62q61 0 115 25q8 4 14 4q12 0 12 -20v-89q0 -15 -11 -23
q-10 -7 -24 -13t-30.5 -11t-34.5 -8.5t-38 -5t-40 -1.5q-122 0 -196 67t-74 179t71.5 181.5t178.5 69.5q94 0 155 -59t61 -177zM272 361q-38 0 -48 -61h93q-5 61 -45 61z" />
    <glyph glyph-name="edieresis" unicode="&#xeb;" horiz-adv-x="522" 
d="M172 580q-34 0 -56.5 24t-22.5 57q0 34 22 58t57 24q22 0 39.5 -11t27.5 -29.5t10 -41.5q0 -33 -22 -57t-55 -24zM363 580q-34 0 -56.5 24t-22.5 57q0 34 22.5 58t56.5 24q22 0 39.5 -11t27.5 -29.5t10 -41.5q0 -21 -10 -39.5t-27.5 -30t-39.5 -11.5zM494 254
q0 -37 -5.5 -47t-20.5 -10h-238q20 -62 105 -62q61 0 115 25q8 4 14 4q12 0 12 -20v-89q0 -15 -11 -23q-27 -17 -72 -28t-95 -11q-122 0 -196 67t-74 179t71.5 181.5t178.5 69.5q94 0 155 -59t61 -177zM272 361q-38 0 -48 -61h93q-5 61 -45 61z" />
    <glyph glyph-name="igrave" unicode="&#xec;" horiz-adv-x="287" 
d="M213 551q1 -2 1 -4q0 -10 -12 -10h-107q-15 0 -22 13l-79 149q-4 8 -4 14q0 15 19 20l141 37q3 1 5 1q10 0 12 -11zM60 0q-14 0 -14 15v450q0 15 14 15h167q15 0 15 -15v-450q0 -15 -15 -15h-167z" />
    <glyph glyph-name="iacute" unicode="&#xed;" horiz-adv-x="287" 
d="M86 537q-15 0 -12 14l46 209q3 14 18 10l140 -37q19 -5 19 -20q0 -6 -4 -14l-79 -149q-7 -13 -21 -13h-107zM60 0q-14 0 -14 15v450q0 15 14 15h167q15 0 15 -15v-450q0 -15 -15 -15h-167z" />
    <glyph glyph-name="icircumflex" unicode="&#xee;" horiz-adv-x="287" 
d="M316 560q3 -6 3 -9q0 -8 -13 -8h-94q-13 0 -20 11l-47 79l-48 -79q-7 -11 -20 -11h-95q-13 0 -13 8q0 3 3 9l98 174q7 11 20 11h109q13 0 19 -11zM227 480q15 0 15 -15v-450q0 -15 -15 -15h-167q-14 0 -14 15v450q0 15 14 15h167z" />
    <glyph glyph-name="idieresis" unicode="&#xef;" horiz-adv-x="287" 
d="M49 578q-23 0 -41 11.5t-28 30t-10 40.5q0 34 22.5 58t56.5 24q22 0 40 -11.5t27.5 -30t9.5 -40.5q0 -33 -22 -57.5t-55 -24.5zM240 578q-34 0 -56.5 24.5t-22.5 57.5q0 34 22.5 58t56.5 24q22 0 40 -11.5t27.5 -30t9.5 -40.5t-9.5 -40.5t-27.5 -30t-40 -11.5zM60 0
q-14 0 -14 15v450q0 15 14 15h167q15 0 15 -15v-450q0 -15 -15 -15h-167z" />
    <glyph glyph-name="eth" unicode="&#xf0;" horiz-adv-x="546" 
d="M374 631q70 -75 107 -163.5t37 -173.5q0 -147 -69.5 -225.5t-177.5 -78.5q-100 0 -171.5 68.5t-71.5 182.5q0 102 59.5 166t149.5 64q39 0 68.5 -18t46.5 -49l4 2q-33 85 -108 164l-106 -50q-3 -2 -6 -2q-7 0 -11 8l-7 13q-2 4 -2 7q0 6 8 10l92 44q-37 34 -79 62
q-5 4 -5 7t7 6l117 40q5 2 10 2q9 0 16 -5q33 -24 62 -51l96 46q3 2 7 2q6 0 10 -8l7 -13q2 -4 2 -7q0 -6 -8 -10zM273 141q28 0 41.5 26.5t13.5 67.5q0 42 -13.5 69t-41.5 27t-42 -26.5t-14 -68.5q0 -41 14.5 -68t41.5 -27z" />
    <glyph glyph-name="ntilde" unicode="&#xf1;" horiz-adv-x="560" 
d="M122 558q-13 0 -12 12q6 75 31.5 119t74.5 44q8 0 16.5 -1.5t15 -4t15 -6.5t13 -7t12.5 -8t11 -7q25 -16 38 -16q18 0 24 29q3 12 14 12h71q12 0 12 -13q-5 -73 -31 -117.5t-74 -44.5q-8 0 -17 1.5t-18.5 6t-15.5 7.5t-16.5 9t-13.5 8q-3 1 -8 4t-8 4.5l-7 3.5t-7 3
t-6.5 1.5t-7.5 0.5q-21 0 -28 -28q-3 -12 -15 -12h-63zM357 490q76 0 120.5 -42.5t44.5 -130.5v-302q0 -15 -14 -15h-167q-15 0 -15 15v273q0 56 -42 56q-45 0 -45 -58v-271q0 -15 -15 -15h-166q-15 0 -15 15v450q0 15 15 15h150q15 0 15 -15v-39h1q43 64 133 64z" />
    <glyph glyph-name="ograve" unicode="&#xf2;" horiz-adv-x="547" 
d="M347 555q1 -3 1 -6q0 -7 -10 -7h-100q-14 0 -23 12l-116 151q-6 8 -6 14q0 10 15 15l127 41q3 1 6 1q10 0 14 -10zM273 -10q-104 0 -174.5 71.5t-70.5 180.5t70 178t175 69t175 -69t70 -178t-70 -180.5t-175 -71.5zM273 143q27 0 40.5 27t13.5 71q0 96 -54 96t-54 -96
q0 -44 13.5 -71t40.5 -27z" />
    <glyph glyph-name="oacute" unicode="&#xf3;" horiz-adv-x="547" 
d="M209 542q-15 0 -9 13l92 211q6 13 19 9l127 -41q15 -5 15 -15q0 -6 -6 -14l-115 -151q-9 -12 -24 -12h-99zM273 -10q-104 0 -174.5 71.5t-70.5 180.5t70 178t175 69t175 -69t70 -178q0 -110 -70 -181t-175 -71zM273 143q27 0 40.5 27t13.5 71q0 96 -54 96t-54 -96
q0 -44 13.5 -71t40.5 -27z" />
    <glyph glyph-name="ocircumflex" unicode="&#xf4;" horiz-adv-x="547" 
d="M112 543q-13 0 -13 8q0 3 3 9l98 174q6 11 19 11h110q13 0 19 -11l98 -174q3 -6 3 -9q0 -8 -13 -8h-94q-13 0 -20 11l-47 79l-48 -79q-7 -11 -20 -11h-95zM273 489q105 0 175 -69t70 -178t-70 -180.5t-175 -71.5q-104 0 -174.5 71.5t-70.5 180.5t70 178t175 69zM273 143
q27 0 40.5 27t13.5 71q0 96 -54 96t-54 -96q0 -44 13.5 -71t40.5 -27z" />
    <glyph glyph-name="otilde" unicode="&#xf5;" horiz-adv-x="547" 
d="M343 549q-6 0 -12 0.5t-11 2t-10.5 4t-10 4.5t-10.5 5t-10 5.5t-9.5 5.5t-8.5 5q-3 1 -9.5 5t-9 5t-7.5 3.5t-9 3t-9 0.5q-21 0 -28 -28q-3 -13 -14 -13h-64q-12 0 -11 13q5 75 31 119t74 44q10 0 19.5 -2t19.5 -6.5t15 -7t16.5 -10t13.5 -8.5q25 -16 37 -16q19 0 25 29
q2 12 14 12h70q13 0 12 -13q-4 -73 -30.5 -117.5t-73.5 -44.5zM273 -10q-104 0 -174.5 71.5t-70.5 180.5t70 178t175 69t175 -69t70 -178q0 -110 -70 -181t-175 -71zM273 143q27 0 40.5 26.5t13.5 71.5q0 96 -54 96t-54 -96q0 -44 13.5 -71t40.5 -27z" />
    <glyph glyph-name="odieresis" unicode="&#xf6;" horiz-adv-x="547" 
d="M179 578q-34 0 -56.5 24.5t-22.5 57.5q0 34 22.5 58t56.5 24q22 0 39.5 -11.5t27.5 -30t10 -40.5q0 -33 -22 -57.5t-55 -24.5zM370 578q-34 0 -56.5 24.5t-22.5 57.5q0 22 10 40.5t28 30t41 11.5q22 0 40 -11.5t27.5 -30t9.5 -40.5q0 -33 -22 -57.5t-55 -24.5zM273 -10
q-104 0 -174.5 71.5t-70.5 180.5t70 178t175 69t175 -69t70 -178t-70 -180.5t-175 -71.5zM273 143q27 0 40.5 27t13.5 71q0 96 -54 96t-54 -96q0 -44 13.5 -71t40.5 -27z" />
    <glyph glyph-name="divide" unicode="&#xf7;" horiz-adv-x="617" 
d="M308 446q-42 0 -69.5 27.5t-27.5 65.5q0 39 27.5 66t69.5 27t69 -27t27 -66q0 -38 -27.5 -65.5t-68.5 -27.5zM50 238q-15 0 -15 15v126q0 14 15 14h517q14 0 14 -14v-126q0 -15 -14 -15h-517zM308 -1q-42 0 -69.5 27.5t-27.5 65.5q0 39 27.5 66t69.5 27t69 -27t27 -66
q0 -38 -27.5 -65.5t-68.5 -27.5z" />
    <glyph glyph-name="oslash" unicode="&#xf8;" horiz-adv-x="549" 
d="M444 424q74 -70 74 -182q0 -109 -70 -180.5t-175 -71.5q-58 0 -108 24l-28 -43q-8 -12 -23 -12h-67q-14 0 -6 12l60 88q-73 72 -73 183q0 109 70 178t175 69q56 0 105 -21l36 51q8 12 23 12h65q15 0 6 -12zM273 143q27 0 40.5 27t13.5 71q0 96 -54 96t-54 -96
q0 -44 13.5 -71t40.5 -27z" />
    <glyph glyph-name="ugrave" unicode="&#xf9;" horiz-adv-x="558" 
d="M216 554l-116 151q-6 8 -6 14q0 10 16 15l126 41q4 1 7 1q9 0 13 -10l92 -211q1 -3 1 -6q0 -7 -10 -7h-99q-15 0 -24 12zM501 480q15 0 15 -15v-450q0 -15 -15 -15h-146q-15 0 -17 14l-6 50h-1q-42 -73 -136 -73q-156 0 -156 185v290q0 15 15 15l166 -1q15 0 15 -15v-282
q0 -60 43 -60q42 0 42 63v279q0 15 14 15h167z" />
    <glyph glyph-name="uacute" unicode="&#xfa;" horiz-adv-x="558" 
d="M210 542q-15 0 -9 13l92 211q6 13 20 9l127 -41q15 -5 15 -15q0 -6 -6 -14l-116 -151q-9 -12 -24 -12h-99zM501 480q15 0 15 -15v-450q0 -15 -15 -15h-146q-15 0 -17 14l-6 50h-1q-42 -73 -136 -73q-156 0 -156 185v290q0 15 15 15l166 -1q15 0 15 -15v-282q0 -60 43 -60
q42 0 42 63v279q0 15 14 15h167z" />
    <glyph glyph-name="ucircumflex" unicode="&#xfb;" horiz-adv-x="558" 
d="M113 543q-13 0 -13 8q0 3 4 9l97 174q7 11 20 11h109q13 0 19 -11l98 -174q3 -6 3 -9q0 -8 -13 -8h-94q-13 0 -20 11l-47 79l-48 -79q-7 -11 -20 -11h-95zM501 480q15 0 15 -15v-450q0 -15 -15 -15h-146q-15 0 -17 14l-6 50h-1q-42 -73 -136 -73q-156 0 -156 185v290
q0 15 15 15l166 -1q15 0 15 -15v-282q0 -60 43 -60q42 0 42 63v279q0 15 14 15h167z" />
    <glyph glyph-name="udieresis" unicode="&#xfc;" horiz-adv-x="558" 
d="M180 578q-34 0 -56.5 24.5t-22.5 57.5q0 34 22.5 58t56.5 24q22 0 40 -11.5t27.5 -30t9.5 -40.5q0 -33 -22 -57.5t-55 -24.5zM371 578q-34 0 -56 24.5t-22 57.5q0 34 22 58t56 24q22 0 40 -11.5t27.5 -30t9.5 -40.5t-9.5 -40.5t-27.5 -30t-40 -11.5zM501 480q15 0 15 -15
v-450q0 -15 -15 -15h-146q-15 0 -17 14l-6 50h-1q-42 -73 -136 -73q-156 0 -156 185v290q0 15 15 15l166 -1q15 0 15 -15v-282q0 -60 43 -60q42 0 42 63v279q0 15 14 15h167z" />
    <glyph glyph-name="yacute" unicode="&#xfd;" horiz-adv-x="529" 
d="M194 542q-15 0 -9 13l92 211q6 13 20 9l126 -41q15 -5 15 -15q0 -6 -5 -14l-116 -151q-9 -12 -24 -12h-99zM514 480q15 0 10 -14l-168 -443q-43 -113 -98.5 -166t-144.5 -53q-59 0 -102 11q-14 4 -14 19v118q0 14 14 10q44 -11 85 -11q35 0 55.5 14t34.5 43l-187 458
q-1 4 -1 7q0 7 10 7h172q15 0 19 -14l66 -211l68 211q4 14 19 14h162z" />
    <glyph glyph-name="thorn" unicode="&#xfe;" horiz-adv-x="561" 
d="M342 488q86 0 138.5 -70.5t52.5 -179.5q0 -107 -52 -177.5t-136 -70.5q-67 0 -107 43v-206q0 -14 -15 -14h-165q-15 0 -15 14v903q0 15 15 15h152q15 0 15 -15v-301q42 59 117 59zM281.5 141q52.5 0 52.5 99q0 98 -52.5 98t-52.5 -97q0 -100 52.5 -100z" />
    <glyph glyph-name="ydieresis" unicode="&#xff;" horiz-adv-x="529" 
d="M164 578q-34 0 -56.5 24.5t-22.5 57.5q0 34 22.5 58t56.5 24q22 0 39.5 -11.5t27.5 -30t10 -40.5q0 -33 -22 -57.5t-55 -24.5zM355 578q-34 0 -56.5 24.5t-22.5 57.5q0 22 10 40.5t28 30t41 11.5q22 0 40 -11.5t27.5 -30t9.5 -40.5q0 -33 -22 -57.5t-55 -24.5zM514 480
q15 0 10 -14l-168 -443q-43 -113 -98.5 -166t-144.5 -53q-59 0 -102 11q-14 4 -14 19v118q0 14 14 10q44 -11 85 -11q35 0 55.5 14t34.5 43l-187 458q-1 4 -1 7q0 7 10 7h172q15 0 19 -14l66 -211l68 211q4 14 19 14h162z" />
    <glyph glyph-name="abreve" unicode="&#x103;" horiz-adv-x="575" 
d="M293 562q-56 0 -98.5 42t-47.5 107v2q0 11 12 11h68q12 0 15 -13q12 -47 51 -47t51 47q3 13 15 13h67q13 0 12 -13q-5 -65 -47 -107t-98 -42zM515 480q14 0 14 -15v-450q0 -15 -14 -15h-163q-15 0 -15 15v67q-37 -90 -129 -90q-80 0 -130 70.5t-50 179.5q0 108 50 178
t130 70q94 0 129 -86v61q0 15 15 15h163zM281 143q27 0 40.5 27t13.5 71q0 96 -54 96t-54 -96q0 -44 13.5 -71t40.5 -27z" />
    <glyph glyph-name="eogonek" unicode="&#x119;" horiz-adv-x="522" 
d="M494 254q0 -37 -5.5 -47t-20.5 -10h-238q20 -62 105 -62q61 0 115 25q8 4 14 4q12 0 12 -20v-89q0 -15 -11 -23q-33 -22 -91 -33q-44 -23 -64.5 -45t-20.5 -40q0 -31 36 -31q10 0 34 7q2 1 4 1q8 0 8 -10v-48q0 -14 -12 -18q-27 -10 -59 -10q-55 0 -88.5 26t-33.5 70
q0 57 51 98q-93 18 -147 81.5t-54 158.5q0 112 71.5 181.5t178.5 69.5q94 0 155 -59t61 -177zM272 361q-38 0 -48 -61h93q-5 61 -45 61z" />
    <glyph glyph-name="idotless" unicode="&#x131;" horiz-adv-x="287" 
d="M60 0q-14 0 -14 15v450q0 15 14 15h167q15 0 15 -15v-450q0 -15 -15 -15h-167z" />
    <glyph glyph-name="Lslash" unicode="&#x141;" horiz-adv-x="508" 
d="M472 175q14 0 14 -15v-145q0 -15 -14 -15h-401q-15 0 -15 15v256l-38 -16q-3 -2 -6 -2q-7 0 -7 11v77q0 14 13 20l38 16v318q0 15 15 15h179q15 0 15 -15v-230l51 21q4 2 6 2q8 0 8 -11v-76q0 -14 -14 -20l-51 -22v-184h207z" />
    <glyph glyph-name="lslash" unicode="&#x142;" horiz-adv-x="332" 
d="M308 150q6 3 10 3q7 0 7 -12v-108q0 -21 -17 -28q-42 -15 -98 -15q-80 0 -123.5 38.5t-43.5 116.5v132l-43 -19q-3 -1 -6 -1q-7 0 -7 10v77q0 15 13 21l43 18v348q0 15 15 15h167q14 0 14 -15v-266l59 25q4 1 7 1q7 0 7 -10v-76q0 -15 -14 -20l-59 -26v-173q0 -42 37 -42
q16 0 32 6z" />
    <glyph glyph-name="OE" unicode="&#x152;" horiz-adv-x="876" 
d="M826 551h-179v-112h143q14 0 14 -14v-130q0 -15 -14 -15h-143v-121h179q15 0 15 -15v-129q0 -15 -15 -15h-387q-83 0 -156.5 24t-129 68.5t-88 112.5t-32.5 150.5t32 150.5t88 112t129.5 68t156.5 24h387q15 0 15 -15v-129q0 -15 -15 -15zM440 169v372
q-86 0 -134.5 -48.5t-48.5 -137t48.5 -137.5t134.5 -49z" />
    <glyph glyph-name="oe" unicode="&#x153;" horiz-adv-x="785" 
d="M759 241q0 -23 -8.5 -33.5t-28.5 -10.5h-210q21 -65 100 -65q65 0 119 31q4 3 7 3q5 0 5 -9v-103q0 -16 -11 -24q-53 -38 -149 -38q-113 0 -177 82q-63 -84 -157 -84t-157.5 71t-63.5 181q0 109 63 178t158 69q94 0 154 -80q62 81 158 81q41 0 75.5 -13.5t62.5 -41.5
t44 -77.5t16 -116.5zM549 362q-35 0 -42 -72h83q-6 72 -41 72zM261 141q45 0 45 100q0 97 -45 97q-46 0 -46 -97q0 -100 46 -100z" />
    <glyph glyph-name="Scaron" unicode="&#x160;" horiz-adv-x="536" 
d="M211 767l-114 149q-3 4 -3 7q0 5 9 5h90q14 0 25 -11l53 -52l51 52q10 11 25 11h89q15 0 6 -12l-114 -149q-9 -12 -24 -12h-69q-15 0 -24 12zM342 432q86 -42 126.5 -89.5t40.5 -124.5q0 -100 -71.5 -164t-191.5 -64q-113 0 -192 37q-13 6 -13 21v143q0 14 13 7
q84 -44 162 -44q38 0 60.5 15t22.5 42q0 23 -17 38.5t-56 31.5q-90 38 -138.5 88t-48.5 132q0 68 36.5 119t95 75.5t128.5 24.5q82 0 152 -22q14 -5 14 -19v-128q0 -14 -13 -9q-65 24 -126 24q-35 0 -54.5 -14t-19.5 -37q0 -14 5 -25t18.5 -21t24 -16t33.5 -17q6 -3 9 -4z
" />
    <glyph glyph-name="scaron" unicode="&#x161;" horiz-adv-x="412" 
d="M145 553l-106 175q-2 4 -2 7q0 6 9 6h88q14 0 23 -12l46 -63l42 63q9 12 23 12h87q15 0 7 -13l-106 -176q-7 -12 -20 -12h-69q-15 0 -22 13zM277 302q58 -17 91 -47t33 -88q0 -77 -60 -125.5t-159 -48.5q-94 0 -150 29q-7 3 -7 12v124q0 14 13 7q29 -17 66.5 -25.5
t64.5 -8.5q43 0 43 25q0 3 -1 5.5t-2.5 5t-5.5 5t-8 4.5t-11.5 4.5t-15.5 5t-20 6.5q-28 9 -47 18t-39 25t-30 40.5t-10 57.5q0 52 29 88t76 52.5t108 16.5q74 0 127 -19q7 -3 7 -11l1 -111q0 -14 -14 -9q-48 17 -90 17q-46 0 -46 -23q0 -10 10.5 -15.5t46.5 -16.5z" />
    <glyph glyph-name="Ydieresis" unicode="&#x178;" horiz-adv-x="612" 
d="M202 771q-31 0 -51 22t-20 53q0 30 20 52t51 22q20 0 36.5 -10t25 -27t8.5 -37q0 -31 -20 -53t-50 -22zM414 771q-31 0 -51.5 22t-20.5 53q0 30 20 52t52 22q20 0 36 -10t24.5 -27t8.5 -37q0 -31 -19.5 -53t-49.5 -22zM217 0q-15 0 -15 15v260l-209 409q-4 8 -4 14
q0 13 20 13h177q14 0 20 -14l109 -261l101 261q6 14 20 14h165q20 0 20 -14q0 -5 -4 -13l-206 -409v-260q0 -15 -15 -15h-179z" />
    <glyph glyph-name="Zcaron" unicode="&#x17d;" horiz-adv-x="543" 
d="M223 767l-114 149q-3 4 -3 7q0 5 9 5h90q14 0 25 -11l53 -52l51 52q10 11 25 11h89q15 0 6 -12l-114 -149q-9 -12 -24 -12h-69q-15 0 -24 12zM506 156q14 0 14 -15v-126q0 -15 -14 -15h-465q-14 0 -14 15v64q0 14 7 27l240 448h-222q-14 0 -14 15v126q0 15 14 15h449
q15 0 15 -15v-64q0 -14 -7 -27l-242 -448h239z" />
    <glyph glyph-name="zcaron" unicode="&#x17e;" horiz-adv-x="461" 
d="M174 553l-105 175q-3 4 -3 7q0 6 10 6h88q14 0 23 -12l45 -63l43 63q8 12 23 12h87q14 0 7 -13l-106 -176q-7 -12 -20 -12h-69q-15 0 -23 13zM415 158q15 0 15 -15v-128q0 -15 -15 -15h-375q-15 0 -15 15v27q0 15 7 28l145 253h-127q-14 0 -14 14v128q0 15 14 15h357
q15 0 15 -15v-27q0 -15 -8 -28l-146 -252h147z" />
    <glyph glyph-name="florin" unicode="&#x192;" horiz-adv-x="509" 
d="M464 743q14 -4 14 -19v-103q0 -27 -29 -23q-11 2 -23 2q-19 0 -32 -7.5t-20.5 -22.5t-10.5 -40l-5 -50h97q15 0 15 -15v-106q0 -15 -15 -15h-113l-37 -317q-9 -76 -33 -124.5t-67 -73.5t-108 -25q-49 0 -90 13q-13 4 -13 19v118q0 14 14 11q18 -5 37 -5q29 0 44 17t19 54
l37 313h-80q-14 0 -14 15v106q0 15 14 15h96l7 53q13 115 61.5 169t145.5 54q47 0 89 -13z" />
    <glyph glyph-name="circumflex" unicode="&#x2c6;" horiz-adv-x="600" 
d="M219 560q3 -6 3 -9q0 -8 -13 -8h-94q-13 0 -20 11l-47 79l-48 -79q-7 -11 -20 -11h-95q-12 0 -12 8q0 3 3 9l97 174q7 11 20 11h109q13 0 19 -11z" />
    <glyph glyph-name="caron" unicode="&#x2c7;" horiz-adv-x="600" 
d="M202 741q14 0 7 -13l-106 -176q-7 -12 -20 -12h-70q-14 0 -22 13l-105 175q-3 4 -3 7q0 6 10 6h87q15 0 24 -12l45 -63l43 63q8 12 23 12h87z" />
    <glyph glyph-name="breve" unicode="&#x2d8;" horiz-adv-x="600" 
d="M48 562q-37 0 -69 19t-52.5 53t-24.5 77v2q0 11 12 11h68q12 0 15 -13q12 -47 51 -47t51 47q3 13 15 13h67q13 0 12 -13q-5 -65 -47 -107t-98 -42z" />
    <glyph glyph-name="dotaccent" unicode="&#x2d9;" horiz-adv-x="520" 
d="M49 558q-39 0 -64.5 27.5t-25.5 65.5q0 39 25.5 66t64.5 27q38 0 62.5 -27t24.5 -66q0 -38 -24.5 -65.5t-62.5 -27.5z" />
    <glyph glyph-name="ring" unicode="&#x2da;" horiz-adv-x="600" 
d="M0 522q-50 0 -87.5 34t-37.5 83q0 50 37.5 83t87.5 33t87.5 -33t37.5 -83t-37.5 -83.5t-87.5 -33.5zM0 594q13 0 23 5.5t15.5 16t5.5 23.5q0 19 -12.5 31t-31.5 12q-13 0 -23 -5.5t-15.5 -15.5t-5.5 -22q0 -20 12.5 -32.5t31.5 -12.5z" />
    <glyph glyph-name="ogonek" unicode="&#x2db;" horiz-adv-x="584" 
d="M12 -196q-54 0 -88 26.5t-34 70.5q0 54 44 92t111 55l62 -38q-55 -26 -80.5 -51t-25.5 -45q0 -31 36 -31q11 0 34 7q2 1 4 1q8 0 8 -10v-48q0 -14 -12 -18q-27 -11 -59 -11z" />
    <glyph glyph-name="tilde" unicode="&#x2dc;" horiz-adv-x="582" 
d="M69 549q-8 0 -17 1.5t-18.5 6t-15.5 7.5t-16.5 9t-13.5 8q-3 1 -9.5 5t-9 5t-7.5 3.5t-9 3t-9 0.5q-21 0 -28 -28q-3 -13 -14 -13h-64q-12 0 -11 13q5 75 30.5 119t74.5 44q10 0 19 -2t19.5 -6.5t15.5 -7t16.5 -10t13.5 -8.5q24 -16 37 -16q19 0 24 29q3 12 15 12h70
q13 0 12 -13q-5 -73 -31 -117.5t-74 -44.5z" />
    <glyph glyph-name="hungarumlaut" unicode="&#x2dd;" horiz-adv-x="584" 
d="M271 542q-14 0 -10 14l74 209q5 14 19 11l126 -26q17 -3 17 -14q0 -5 -5 -13l-109 -169q-8 -12 -22 -12h-90zM101 542q-15 0 -13 14l37 208q2 15 17 12l124 -25q18 -4 18 -18q0 -5 -4 -12l-75 -166q-6 -13 -21 -13h-83z" />
    <glyph glyph-name="gravecomb" unicode="&#x300;" 
d="M73 555q1 -3 1 -6q0 -7 -10 -7h-99q-15 0 -24 12l-116 151q-6 8 -6 14q0 10 16 15l126 41q4 1 7 1q9 0 13 -10z" />
    <glyph glyph-name="acutecomb" unicode="&#x301;" 
d="M-65 542q-14 0 -8 13l91 211q6 13 20 9l127 -41q15 -5 15 -15q0 -6 -6 -14l-116 -151q-9 -12 -23 -12h-100z" />
    <glyph glyph-name="circumflexcomb" unicode="&#x302;" 
d="M171 560q3 -6 3 -9q0 -8 -13 -8h-94q-13 0 -19 11l-48 79l-48 -79q-6 -11 -20 -11h-94q-13 0 -13 8q0 3 3 9l98 174q6 11 19 11h109q13 0 20 -11z" />
    <glyph glyph-name="tildecomb" unicode="&#x303;" 
d="M69 549q-9 0 -17.5 1.5t-18 6t-15.5 7.5t-16.5 9t-14.5 8q-2 1 -8.5 5t-9.5 5t-8 3.5t-9 3t-8 0.5q-22 0 -28 -28q-3 -13 -15 -13h-63q-13 0 -12 13q5 75 31 119t75 44q9 0 18.5 -2t19.5 -6.5t15 -7t16.5 -10t13.5 -8.5q25 -16 37 -16q19 0 25 29q2 12 14 12h70
q13 0 12 -13q-4 -73 -30 -117.5t-74 -44.5z" />
    <glyph glyph-name="macroncomb" unicode="&#x304;" 
d="M-151 582q-15 0 -15 14v94q0 14 15 14h302q14 0 14 -14v-94q0 -14 -14 -14h-302z" />
    <glyph glyph-name="brevecomb" unicode="&#x306;" 
d="M0 562q-56 0 -98 42t-48 107v2q0 11 13 11h67q12 0 15 -13q12 -47 51 -47t51 47q3 13 16 13h66q14 0 13 -13q-6 -65 -48 -107t-98 -42z" />
    <glyph glyph-name="dotaccentcomb" unicode="&#x307;" 
d="M1 558q-38 0 -63.5 27.5t-25.5 65.5q0 39 25 66t64 27q38 0 63 -27t25 -66q0 -38 -25 -65.5t-63 -27.5z" />
    <glyph glyph-name="dieresiscomb" unicode="&#x308;" 
d="M-95 578q-34 0 -56 24.5t-22 57.5q0 34 22 58t56 24q14 0 26 -4.5t21 -12t16 -17.5t10.5 -22.5t3.5 -25.5q0 -33 -22 -57.5t-55 -24.5zM96 578q-34 0 -56 24.5t-22 57.5q0 34 22 58t56 24q22 0 40 -11.5t27.5 -30t9.5 -40.5q0 -33 -21.5 -57.5t-55.5 -24.5z" />
    <glyph glyph-name="ringcomb" unicode="&#x30a;" 
d="M0 522q-50 0 -87.5 34t-37.5 83q0 50 37.5 83t87.5 33t87.5 -33t37.5 -83t-37.5 -83.5t-87.5 -33.5zM0 594q13 0 23 5.5t15.5 16t5.5 23.5q0 19 -12.5 31t-31.5 12q-13 0 -23 -5.5t-15.5 -15.5t-5.5 -22q0 -20 12.5 -32.5t31.5 -12.5z" />
    <glyph glyph-name="hungarumlautcomb" unicode="&#x30b;" 
d="M22 542q-14 0 -10 14l74 209q5 14 19 11l126 -26q17 -3 17 -14q0 -5 -5 -13l-109 -169q-7 -12 -22 -12h-90zM-148 542q-15 0 -12 14l36 208q3 15 17 12l124 -25q18 -4 18 -18q0 -5 -4 -12l-75 -166q-6 -13 -21 -13h-83z" />
    <glyph glyph-name="caroncomb" unicode="&#x30c;" 
d="M154 741q15 0 7 -13l-106 -176q-7 -12 -20 -12h-69q-15 0 -23 13l-105 175q-3 4 -3 7q0 6 10 6h88q14 0 23 -12l45 -63l43 63q8 12 23 12h87z" />
    <glyph glyph-name="cedillacomb" unicode="&#x327;" horiz-adv-x="32" 
d="M47 -29q31 -6 50.5 -25.5t19.5 -49.5q0 -40 -34.5 -65t-92.5 -25q-40 0 -65 7q-12 4 -12 18v44q0 13 12 10q26 -7 48 -7q33 0 33 18q0 9 -11 14.5t-28 5.5q-14 0 -27 -4l-3 4l52 104h85z" />
    <glyph glyph-name="ogonekcomb" unicode="&#x328;" 
d="M12 -196q-54 0 -88 26.5t-34 70.5q0 54 44 92t111 55l62 -38q-55 -26 -80.5 -51t-25.5 -45q0 -31 36 -31q11 0 34 7q2 1 4 1q8 0 8 -10v-48q0 -14 -12 -18q-27 -11 -59 -11z" />
    <glyph glyph-name="slashshortcomb" unicode="&#x337;" 
d="M-227 -24q-15 0 -7 12l373 548q8 12 23 12h65q15 0 7 -12l-372 -548q-8 -12 -23 -12h-66z" />
    <glyph glyph-name="slashlongcomb" unicode="&#x338;" 
d="M-288 -9q-11 0 -5 9l489 706q8 12 23 12h65q15 0 7 -12l-486 -703q-9 -12 -23 -12h-70z" />
    <glyph glyph-name="Delta" unicode="&#x394;" horiz-adv-x="583" 
d="M29 0q-14 0 -14 15v83q0 15 4 29l188 570q5 14 19 14h130q14 0 19 -14l188 -570q4 -14 4 -29v-83q0 -15 -14 -15h-524zM214 138h154l-77 309z" />
    <glyph glyph-name="Omega" unicode="&#x3a9;" horiz-adv-x="702" 
d="M31 0q-15 0 -15 15v127q0 15 15 15h113v10q-45 35 -75 102.5t-30 147.5q0 93 42.5 163t113 105t156.5 35q64 0 120.5 -20.5t99 -58.5t67.5 -96t25 -128q0 -80 -30.5 -147.5t-75.5 -102.5v-10h114q14 0 14 -15v-127q0 -15 -14 -15h-282q-14 0 -14 15v134q0 14 8 27
q65 90 65 203q0 81 -26 125t-71 44t-71 -44t-26 -125q0 -113 64 -203q9 -13 9 -27v-134q0 -15 -15 -15h-281z" />
    <glyph glyph-name="mu" unicode="&#x3bc;" horiz-adv-x="558" 
d="M501 480q15 0 15 -15v-450q0 -15 -15 -15h-138q-14 0 -17 15l-7 43h-3q-25 -67 -81 -67q-23 0 -41 9l19 -171v-2q0 -13 -13 -13h-168q-15 0 -14 15l17 220l-16 416v1q0 14 15 14h166q15 0 15 -15v-282q0 -61 42.5 -61t42.5 67v276q0 15 15 15h166z" />
    <glyph glyph-name="pi" unicode="&#x3c0;" horiz-adv-x="644" 
d="M591 144h5q9 0 9 -11v-104q0 -16 -13 -21q-40 -18 -96 -18q-73 0 -113 44t-40 131v163h-68v-313q0 -15 -14 -15h-161q-15 0 -15 15v313h-55q-15 0 -15 15v122q0 15 15 15h547q15 0 15 -15v-122q0 -15 -15 -15h-45v-135q0 -53 34 -53q12 0 25 4z" />
    <glyph glyph-name="enspace" unicode="&#x2002;" horiz-adv-x="500" 
 />
    <glyph glyph-name="emspace" unicode="&#x2003;" horiz-adv-x="1000" 
 />
    <glyph glyph-name="threeperemspace" unicode="&#x2004;" horiz-adv-x="558" 
 />
    <glyph glyph-name="fourperemspace" unicode="&#x2005;" horiz-adv-x="250" 
 />
    <glyph glyph-name="thinspace" unicode="&#x2009;" horiz-adv-x="93" 
 />
    <glyph glyph-name="hairspace" unicode="&#x200a;" horiz-adv-x="62" 
 />
    <glyph glyph-name="endash" unicode="&#x2013;" horiz-adv-x="678" 
d="M96 181q-14 0 -14 15v123q0 15 14 15h485q15 0 15 -15v-123q0 -15 -15 -15h-485z" />
    <glyph glyph-name="emdash" unicode="&#x2014;" horiz-adv-x="916" 
d="M96 181q-14 0 -14 15v123q0 15 14 15h723q15 0 15 -15v-123q0 -15 -15 -15h-723z" />
    <glyph glyph-name="quoteleft" unicode="&#x2018;" horiz-adv-x="302" 
d="M156 523q30 -10 48 -36.5t18 -60.5q0 -45 -29.5 -75.5t-71.5 -30.5q-43 0 -71.5 30t-28.5 76q0 14 4.5 32.5t8 27.5t15 37t14.5 34l62 151q5 12 18 12h45q13 0 10 -13z" />
    <glyph glyph-name="quoteright" unicode="&#x2019;" horiz-adv-x="302" 
d="M185 720q43 0 71.5 -30t28.5 -76q0 -14 -4.5 -32.5t-8 -27.5t-15 -37t-14.5 -34l-62 -151q-5 -12 -18 -12h-45q-13 0 -10 13l42 184q-20 6 -35 20.5t-23 34.5t-8 42q0 45 29.5 75.5t71.5 30.5z" />
    <glyph glyph-name="quotesinglbase" unicode="&#x201a;" horiz-adv-x="270" 
d="M135 203q28 0 51 -13.5t36 -38t13 -54.5q0 -14 -4.5 -32.5t-7.5 -27.5t-15 -37t-14 -34l-63 -151q-5 -12 -18 -12h-45q-13 0 -10 13l42 184q-29 10 -47.5 36.5t-18.5 60.5q0 45 29.5 75.5t71.5 30.5z" />
    <glyph glyph-name="quotedblleft" unicode="&#x201c;" horiz-adv-x="559" 
d="M167 513q30 -10 48 -36.5t18 -60.5q0 -45 -29.5 -75.5t-71.5 -30.5q-43 0 -71.5 30t-28.5 76q0 14 4.5 32.5t8 27.5t15 37t14.5 34l62 151q5 12 18 12h45q13 0 10 -13zM423 513q15 -5 27.5 -14.5t21 -22.5t13.5 -28t5 -32q0 -45 -29.5 -75.5t-71.5 -30.5q-43 0 -71.5 30
t-28.5 76q0 14 4.5 32.5t7.5 27.5t15 37t14 34l63 151q5 12 18 12h45q13 0 10 -13z" />
    <glyph glyph-name="quotedblright" unicode="&#x201d;" horiz-adv-x="559" 
d="M174 720q43 0 71.5 -30t28.5 -76q0 -14 -4.5 -32.5t-7.5 -27.5t-15 -37t-14 -34l-63 -151q-5 -12 -18 -12h-45q-13 0 -10 13l43 184q-20 6 -35 20.5t-23.5 34.5t-8.5 42q0 45 29.5 75.5t71.5 30.5zM431 720q43 0 71.5 -30t28.5 -76q0 -14 -4.5 -32.5t-8 -27.5t-15 -37
t-14.5 -34l-62 -151q-5 -12 -18 -12h-45q-13 0 -10 13l42 184q-20 6 -35 20.5t-23 34.5t-8 42q0 30 14 54.5t37 38t50 13.5z" />
    <glyph glyph-name="quotedblbase" unicode="&#x201e;" horiz-adv-x="526" 
d="M120 203q43 0 71.5 -30t28.5 -76q0 -14 -4.5 -32.5t-8 -27.5t-15 -37t-14.5 -34l-62 -151q-5 -12 -18 -12h-45q-13 0 -10 13l42 184q-30 10 -48 36.5t-18 60.5q0 45 29.5 75.5t71.5 30.5zM377 203q43 0 71.5 -30t28.5 -76q0 -14 -4.5 -32.5t-8 -27.5t-15.5 -37t-14 -34
l-62 -151q-5 -12 -18 -12h-45q-13 0 -10 13l42 184q-30 10 -48 36.5t-18 60.5q0 30 13.5 54.5t36.5 38t51 13.5z" />
    <glyph glyph-name="dagger" unicode="&#x2020;" horiz-adv-x="409" 
d="M372 594h2q13 0 13 -14v-102q0 -15 -15 -14l-83 5v-220q0 -15 -15 -15h-138q-15 0 -15 15v220l-84 -5h-2q-13 0 -13 14v102q0 14 15 14l84 -5v106q0 15 15 15h138q15 0 15 -15v-106z" />
    <glyph glyph-name="daggerdbl" unicode="&#x2021;" horiz-adv-x="409" 
d="M372 501l-83 5v-74l83 5h2q13 0 13 -14v-102q0 -15 -15 -14l-83 5v-63q0 -15 -15 -15h-138q-15 0 -15 15v63l-84 -5h-2q-13 0 -13 14v102q0 14 15 14l84 -5v74l-84 -5h-2q-13 0 -13 14v102q0 15 15 14l84 -4v68q0 15 15 15h138q15 0 15 -15v-68l83 4h2q13 0 13 -14v-102
q0 -14 -15 -14z" />
    <glyph glyph-name="bullet" unicode="&#x2022;" horiz-adv-x="368" 
d="M186 42q-66 0 -109 47t-43 110q0 66 43 112t109 46q63 0 105 -46.5t42 -111.5q0 -63 -42 -110t-105 -47z" />
    <glyph glyph-name="ellipsis" unicode="&#x2026;" horiz-adv-x="857" 
d="M135 -7q-29 0 -52 15t-36 39t-13 51q0 44 28.5 74.5t72.5 30.5q43 0 71 -30.5t28 -74.5q0 -42 -28 -73.5t-71 -31.5zM430 -7q-44 0 -72.5 31.5t-28.5 73.5q0 44 28.5 74.5t72.5 30.5q42 0 70 -30.5t28 -74.5q0 -42 -28 -73.5t-70 -31.5zM725 -7q-44 0 -72.5 31.5
t-28.5 73.5q0 44 28.5 74.5t72.5 30.5q42 0 70 -30.5t28 -74.5q0 -42 -28 -73.5t-70 -31.5z" />
    <glyph glyph-name="perthousand" unicode="&#x2030;" horiz-adv-x="1109" 
d="M117 7q-7 4 -7 11q0 4 3 8l468 708q5 7 12 7q4 0 9 -3l38 -22q8 -5 8 -11q0 -4 -4 -9l-467 -709q-5 -7 -12 -7q-4 0 -9 3zM199 386q-66 0 -113 46t-47 120q0 75 47 121.5t113 46.5q31 0 60 -12t51 -33.5t35.5 -53.5t13.5 -69q0 -74 -47 -120t-113 -46zM199 492
q32 0 32 60q0 62 -32 62q-16 0 -24.5 -17.5t-8.5 -44.5q0 -26 8.5 -43t24.5 -17zM550 -10q-65 0 -112 46t-47 120q0 75 47 121.5t112 46.5q43 0 79 -20.5t58.5 -59t22.5 -88.5q0 -74 -47 -120t-113 -46zM909 -10q-65 0 -112 46t-47 120q0 75 47 121.5t112 46.5q66 0 113 -47
t47 -121t-47 -120t-113 -46zM550 96q33 0 33 60q0 62 -33 62q-16 0 -24.5 -17.5t-8.5 -44.5q0 -26 8.5 -43t24.5 -17zM909 96q33 0 33 60q0 62 -33 62q-10 0 -17.5 -8.5t-11 -22.5t-3.5 -31q0 -26 8 -43t24 -17z" />
    <glyph glyph-name="guilsinglleft" unicode="&#x2039;" horiz-adv-x="426" 
d="M266 15q-5 -5 -9 -5q-5 0 -10 6l-208 264q-4 6 -4 12t5 11l207 244q4 6 10 6q5 0 10 -5l84 -75q6 -6 6 -12q0 -5 -3 -10l-112 -159l112 -159q3 -6 3 -11q0 -6 -5 -12z" />
    <glyph glyph-name="guilsinglright" unicode="&#x203a;" horiz-adv-x="426" 
d="M179 16q-4 -6 -9 -6t-10 5l-86 95q-5 6 -5 12q0 5 4 11l112 159l-112 159q-4 5 -4 10q0 6 6 12l84 76q5 4 10 4q6 0 11 -6l206 -244q5 -5 5 -11t-4 -12z" />
    <glyph glyph-name="fraction" unicode="&#x2044;" horiz-adv-x="110" 
d="M-210 7q-8 4 -8 11q0 4 3 8l468 708q5 7 12 7q4 0 9 -3l38 -22q8 -5 8 -11q0 -4 -3 -9l-468 -709q-5 -7 -12 -7q-4 0 -8 3z" />
    <glyph glyph-name="euro" unicode="&#x20ac;" horiz-adv-x="520" 
d="M474 181q7 3 13 3q14 0 14 -20v-129q0 -15 -14 -20q-57 -24 -142 -24q-98 0 -176.5 65t-108.5 177h-47q-11 0 -11 12v70q0 12 11 12h33v27q0 17 1 33h-34q-11 0 -11 12v71q0 11 11 11h49q30 112 110 175.5t185 63.5q66 0 121 -15q14 -4 14 -19v-132q0 -20 -15 -20
q-5 0 -12 2q-36 12 -80 12q-73 0 -111 -67h199q11 0 11 -11v-71q0 -12 -11 -12h-225q-1 -15 -1 -31q0 -15 1 -29h225q11 0 11 -12v-70q0 -12 -11 -12h-199q37 -67 109 -67q50 0 91 15z" />
    <glyph glyph-name="trademark" unicode="&#x2122;" horiz-adv-x="828" 
d="M809 350v-4q0 -9 -11 -9h-108q-13 0 -14 13l-15 166l-45 -164q-3 -13 -16 -13h-56q-13 0 -17 12l-51 170l-22 -171q-2 -13 -15 -13h-95q-13 0 -10 13l56 347q3 13 16 13h107q13 0 16 -13l45 -173l42 173q3 13 16 13h99q13 0 16 -13zM311 710q13 0 13 -13v-68
q0 -13 -13 -13h-77v-266q0 -13 -13 -13h-103q-13 0 -13 13v266h-76q-13 0 -13 13v68q0 13 13 13h282z" />
    <glyph glyph-name="oneeighth" unicode="&#x215b;" horiz-adv-x="796" 
d="M657 716q8 -5 8 -11q0 -4 -3 -9l-468 -709q-5 -7 -12 -7q-4 0 -9 3l-39 24q-7 4 -7 11q0 4 3 8l468 708q5 7 12 7q4 0 9 -3zM131 348v234l-64 -23q-3 -1 -5 -1q-8 0 -8 11v70q0 15 13 20l121 52q12 5 25 5h23q14 0 14 -15v-353q0 -15 -14 -15h-90q-15 0 -15 15zM709 202
q69 -28 69 -90q0 -56 -44 -86t-108.5 -30t-108 30t-43.5 86q0 63 68 90q-53 29 -53 81q0 31 18.5 55t49.5 36.5t69 12.5q28 0 53 -7.5t43.5 -20.5t29.5 -33t11 -43q0 -52 -54 -81zM626 303q-19 0 -30 -8.5t-11 -23.5q0 -17 11 -26t30 -9t29.5 9t10.5 26q0 15 -11 23.5
t-29 8.5zM626 81q21 0 35 10t14 28t-14 28t-35 10t-35.5 -10t-14.5 -28q0 -12 7 -20.5t18 -13t25 -4.5z" />
    <glyph glyph-name="threeeighths" unicode="&#x215c;" horiz-adv-x="787" 
d="M648 716q7 -5 7 -11q0 -4 -3 -9l-468 -709q-5 -7 -11 -7q-5 0 -9 3l-39 24q-7 4 -7 11q0 4 3 8l467 708q5 7 12 7q5 0 9 -3zM309 450q0 -55 -52 -87.5t-126 -32.5q-53 0 -84 9q-14 4 -14 20v60q0 14 14 10q32 -8 65 -8t52.5 9t19.5 24q0 31 -74 31h-17q-15 0 -15 15v56
q0 15 15 15h17q71 0 71 32q0 15 -18.5 23t-48.5 8q-35 0 -62 -9q-3 -1 -6 -1q-8 0 -8 11v58q0 15 14 18q37 10 84 10q72 0 113 -26t41 -71q0 -58 -72 -83q46 -10 68.5 -34t22.5 -57zM700 202q68 -28 68 -90q0 -56 -43.5 -86t-107.5 -30q-42 0 -75.5 12t-55 39t-21.5 65
q0 63 68 90q-54 29 -54 81q0 31 18.5 55t49.5 36.5t70 12.5q28 0 53 -7.5t43.5 -20.5t29.5 -33t11 -43q0 -52 -54 -81zM617 303q-19 0 -30 -8.5t-11 -23.5q0 -17 10.5 -26t30.5 -9q18 0 28.5 9t10.5 26q0 15 -10.5 23.5t-28.5 8.5zM617 81q21 0 34.5 10t13.5 28t-13.5 28
t-34.5 10t-35.5 -10t-14.5 -28t14 -28t36 -10z" />
    <glyph glyph-name="fiveeighths" unicode="&#x215d;" horiz-adv-x="797" 
d="M658 716q8 -5 8 -11q0 -4 -3 -9l-468 -709q-5 -7 -12 -7q-4 0 -8 3l-39 24q-8 4 -8 11q0 4 3 8l468 708q5 7 12 7q4 0 9 -3zM315 468q0 -63 -53 -101.5t-127 -38.5q-44 0 -75 11q-13 5 -13 21v60q0 14 14 10q28 -8 53 -8q16 0 30 3t24 8.5t15.5 13.5t5.5 17
q0 17 -19.5 28t-52.5 11q-26 0 -52 -8q-3 -2 -6 -2q-7 0 -5 11l33 196q3 14 17 14h182q15 0 15 -15v-64q0 -15 -15 -15h-113l-8 -40q69 -1 109.5 -28.5t40.5 -83.5zM711 202q68 -28 68 -90q0 -56 -43.5 -86t-108 -30t-108.5 30t-44 86q0 63 69 90q-54 29 -54 81
q0 31 18.5 55t49.5 36.5t69 12.5t69 -12.5t50 -36.5t19 -55q0 -52 -54 -81zM627 303q-18 0 -29 -8.5t-11 -23.5q0 -17 10.5 -26t29.5 -9t29.5 9t10.5 26q0 15 -10.5 23.5t-29.5 8.5zM627 81q22 0 35.5 10t13.5 28t-13.5 28t-35.5 10q-21 0 -35 -10t-14 -28t13.5 -28
t35.5 -10z" />
    <glyph glyph-name="seveneighths" unicode="&#x215e;" horiz-adv-x="760" 
d="M621 716q7 -5 7 -11q0 -4 -3 -9l-467 -709q-5 -7 -12 -7q-4 0 -9 3l-39 24q-7 4 -7 11q0 4 3 8l468 708q5 7 12 7q4 0 8 -3zM183 347q-6 -14 -20 -14h-94q-14 0 -8 14l118 265h-129q-14 0 -14 15v72q0 15 14 15h270q14 0 9 -14zM673 202q69 -28 69 -90q0 -56 -44 -86
t-108 -30q-42 0 -75.5 12t-55 39t-21.5 65q0 63 68 90q-53 29 -53 81q0 31 18.5 55t49.5 36.5t69 12.5q58 0 97.5 -28.5t39.5 -75.5q0 -52 -54 -81zM590 303q-19 0 -30 -8.5t-11 -23.5q0 -17 11 -26t30 -9t29.5 9t10.5 26q0 15 -11 23.5t-29 8.5zM590 81q21 0 34.5 10
t13.5 28t-13.5 28t-34.5 10t-35.5 -10t-14.5 -28q0 -12 6.5 -20.5t18 -13t25.5 -4.5z" />
    <glyph glyph-name="partialdiff" unicode="&#x2202;" horiz-adv-x="523" 
d="M156 720q76 0 135.5 -20t98.5 -54t64.5 -82.5t36 -103t10.5 -117.5q0 -102 -27.5 -181t-83.5 -125.5t-133 -46.5q-98 0 -167 68t-69 184q0 103 63.5 164.5t151.5 61.5q38 0 70 -10q-17 61 -57 89t-109 28q-35 0 -57 -5q-2 -1 -4 -1q-10 0 -10 11v116q0 15 15 18
q34 6 72 6zM262 143q26 0 41.5 46t16.5 135q-19 6 -41 6q-30 0 -48 -27.5t-18 -72.5q0 -40 12.5 -63.5t36.5 -23.5z" />
    <glyph glyph-name="product" unicode="&#x220f;" horiz-adv-x="777" 
d="M721 710q14 0 14 -15v-141q0 -15 -14 -15h-74v-646q0 -15 -14 -15h-187q-14 0 -14 15v646h-98v-646q0 -15 -15 -15h-177q-15 0 -15 15v646h-81q-14 0 -14 15v141q0 15 14 15h675z" />
    <glyph glyph-name="summation" unicode="&#x2211;" horiz-adv-x="582" 
d="M522 26q15 0 15 -15v-126q0 -15 -15 -15h-456q-14 0 -14 15v87q0 14 9 26l220 293l-220 292q-9 11 -9 26v86q0 15 14 15h447q14 0 14 -15v-126q0 -14 -14 -14h-225l182 -240q8 -12 8 -24.5t-8 -23.5l-183 -241h235z" />
    <glyph glyph-name="minus" unicode="&#x2212;" horiz-adv-x="617" 
d="M50 232q-15 0 -15 15v126q0 14 15 14h517q14 0 14 -14v-126q0 -15 -14 -15h-517z" />
    <glyph glyph-name="radical" unicode="&#x221a;" horiz-adv-x="688" 
d="M626 710q22 0 22 -16q0 -5 -3 -12l-317 -798q-5 -14 -20 -14h-63q-15 0 -21 13l-209 424q-4 8 -4 13q0 14 20 14h140q14 0 20 -13l81 -190l198 551q11 28 41 28h115z" />
    <glyph glyph-name="infinity" unicode="&#x221e;" horiz-adv-x="918" 
d="M656 551q92 0 157.5 -66.5t65.5 -167.5t-65 -167.5t-157 -66.5q-102 0 -193 111q-96 -111 -197 -111q-95 0 -161.5 66.5t-66.5 163.5q0 99 68.5 168.5t161.5 69.5q94 0 180 -115q45 55 93.5 85t113.5 30zM261 234q36 0 99 82q-35 46 -57 65t-41 19q-23 0 -42 -24
t-19 -59.5t18.5 -59t41.5 -23.5zM656 234q25 0 43.5 22.5t18.5 58.5q0 18 -6 34.5t-15 27t-20.5 17t-22.5 6.5q-12 0 -25 -7t-26.5 -20t-26 -28t-27.5 -37q23 -26 41 -42t34.5 -24t31.5 -8z" />
    <glyph glyph-name="integral" unicode="&#x222b;" horiz-adv-x="511" 
d="M97 -210q-49 0 -90 12q-13 4 -13 20v118q0 14 14 11q18 -5 37 -5q29 0 44 16.5t19 53.5l62 517q8 76 32 124.5t67 73.5t108 25q47 0 89 -13q14 -4 14 -19v-103q0 -27 -29 -23q-11 2 -23 2q-19 0 -32 -7.5t-20.5 -22.5t-10.5 -40l-60 -517q-13 -114 -62.5 -168.5
t-145.5 -54.5z" />
    <glyph glyph-name="approxequal" unicode="&#x2248;" horiz-adv-x="600" 
d="M407 361q-50 0 -122 44q-50 31 -74 31q-38 0 -47 -55q-2 -14 -16 -14h-85q-14 0 -14 15q5 90 42 145.5t104 55.5q20 0 42 -7t35 -14t36 -21q53 -32 79 -32q17 0 27.5 14t12.5 37q1 15 14 15h90q15 0 14 -15q-1 -58 -18 -103t-48 -70.5t-72 -25.5zM407 104q-50 0 -122 45
q-50 31 -74 31q-38 0 -47 -55q-2 -15 -16 -15h-85q-15 0 -14 15q5 91 42 146.5t104 55.5q20 0 42 -7.5t35 -14t36 -20.5q53 -33 79 -33q17 0 27.5 14.5t12.5 37.5q1 14 14 14h90q15 0 14 -15q-1 -87 -39 -143t-99 -56z" />
    <glyph glyph-name="notequal" unicode="&#x2260;" horiz-adv-x="617" 
d="M567 347h-200l-37 -65h237q14 0 14 -15v-126q0 -14 -14 -14h-323l-42 -78q-7 -12 -22 -12h-67q-14 0 -7 12l43 78h-99q-15 0 -15 14v126q0 15 15 15h185l36 65h-221q-15 0 -15 15v126q0 15 15 15h308l38 68q7 13 21 13h66q15 0 8 -13l-38 -68h114q14 0 14 -15v-126
q0 -15 -14 -15z" />
    <glyph glyph-name="lessequal" unicode="&#x2264;" horiz-adv-x="617" 
d="M585 208q0 -21 -13 -21q-6 0 -14 4l-514 250q-13 7 -13 21v65l541 264q4 1 7 1q6 0 6 -10v-140q0 -30 -27 -42l-225 -105q-6 -3 -6 -6t6 -6l239 -111q13 -7 13 -21v-143zM585 15q0 -15 -14 -15h-517q-15 0 -15 15v126q0 14 15 14h517q14 0 14 -14v-126z" />
    <glyph glyph-name="greaterequal" unicode="&#x2265;" horiz-adv-x="617" 
d="M62 191q-7 -4 -13 -4q-14 0 -14 21v143q0 14 13 21l239 111q7 3 7 6t-7 6l-225 105q-27 12 -27 42v140q0 15 13 9l541 -264v-65q0 -14 -13 -21zM50 0q-15 0 -15 15v126q0 14 15 14h517q14 0 14 -14v-126q0 -15 -14 -15h-517z" />
    <glyph glyph-name="lozenge" unicode="&#x25ca;" horiz-adv-x="617" 
d="M286 -44q-15 0 -22 13l-207 375q-3 6 -3 12.5t3 12.5l207 375q7 12 22 12h44q15 0 22 -12l207 -375q3 -6 3 -12.5t-3 -12.5l-207 -375q-7 -13 -22 -13h-44zM309 182l98 174l-98 174l-100 -174z" />
    <glyph glyph-name="apple" unicode="&#xf8ff;" horiz-adv-x="999" 
d="M499 -140q-135 0 -250 67t-182 182t-67 251q0 206 146.5 352.5t352.5 146.5q135 0 250.5 -67t182.5 -182t67 -250q0 -136 -67 -251t-182.5 -182t-250.5 -67zM499 109q205 0 341 15q26 2 37.5 11t14.5 33q5 63 5 192q0 128 -5 191q-3 24 -14.5 33t-37.5 11
q-136 15 -341 15t-342 -15q-25 -2 -36.5 -11t-14.5 -33q-6 -63 -6 -191q0 -129 6 -192q3 -24 14.5 -33t36.5 -11q137 -15 342 -15zM499 157q-85 0 -143.5 59.5t-58.5 143.5q0 83 58.5 142.5t143.5 59.5t143.5 -59.5t58.5 -142.5q0 -84 -58.5 -143.5t-143.5 -59.5z" />
    <glyph glyph-name="a.ss01" horiz-adv-x="494" 
d="M212 490q243 0 243 -219v-256q0 -15 -14 -15h-138q-16 0 -19 14q-4 23 -3 43q-20 -34 -52 -50.5t-68 -16.5q-60 0 -98.5 38.5t-38.5 100.5t44.5 100t120.5 47q33 4 72 5v1q0 33 -22.5 48.5t-59.5 15.5q-52 0 -104 -20q-3 -2 -6 -2q-7 0 -7 10v112q0 15 13 20
q62 24 137 24zM222 104q17 0 28 13.5t11 37.5v48q-13 -3 -24 -6q-46 -16 -46 -58q0 -16 8.5 -25.5t22.5 -9.5z" />
    <glyph glyph-name="aacute.ss01" horiz-adv-x="495" 
d="M186 542q-14 0 -9 13l92 210q6 14 20 9l127 -40q15 -5 15 -15q0 -6 -6 -14l-116 -152q-9 -11 -23 -11h-100zM212 490q243 0 243 -219v-256q0 -15 -14 -15h-138q-16 0 -19 14q-4 22 -3 42q-20 -33 -52 -49.5t-68 -16.5q-60 0 -98.5 38.5t-38.5 100.5t44.5 100t120.5 47
q33 4 72 5v1q0 22 -11 37t-29 21t-42 6q-52 0 -104 -20q-3 -2 -6 -2q-7 0 -7 10v112q0 15 13 20q62 24 137 24zM222 104q17 0 28 13.5t11 37.5v48q-13 -3 -24 -6q-46 -16 -46 -58q0 -16 8.5 -25.5t22.5 -9.5z" />
    <glyph glyph-name="acircumflex.ss01" horiz-adv-x="495" 
d="M89 543q-12 0 -12 7q0 4 3 10l97 174q7 11 20 11h109q13 0 19 -11l98 -174q3 -6 3 -10q0 -7 -13 -7h-94q-13 0 -20 11l-47 79l-48 -79q-7 -11 -20 -11h-95zM212 490q243 0 243 -219v-256q0 -15 -14 -15h-138q-16 0 -19 14q-4 23 -3 43q-20 -34 -52 -50.5t-68 -16.5
q-60 0 -98.5 38.5t-38.5 100.5t44.5 100t120.5 47q33 4 72 5v1q0 33 -22.5 48.5t-59.5 15.5q-52 0 -104 -20q-3 -2 -6 -2q-7 0 -7 10v112q0 15 13 20q62 24 137 24zM222 104q17 0 28 13.5t11 37.5v48q-13 -3 -24 -6q-46 -16 -46 -58q0 -16 8.5 -25.5t22.5 -9.5z" />
    <glyph glyph-name="adieresis.ss01" horiz-adv-x="495" 
d="M156 578q-34 0 -56.5 24.5t-22.5 57.5q0 34 22.5 58t56.5 24q22 0 40 -11.5t27.5 -30t9.5 -40.5q0 -33 -22 -57.5t-55 -24.5zM347 578q-34 0 -56 24.5t-22 57.5q0 34 22 58t56 24q22 0 40 -11.5t27.5 -30t9.5 -40.5q0 -33 -22 -57.5t-55 -24.5zM212 490q243 0 243 -219
v-256q0 -15 -14 -15h-138q-16 0 -19 14q-4 23 -3 43q-20 -34 -52 -50.5t-68 -16.5q-60 0 -98.5 38.5t-38.5 100.5t44.5 100t120.5 47q33 4 72 5v1q0 33 -22.5 48.5t-59.5 15.5q-52 0 -104 -20q-3 -2 -6 -2q-7 0 -7 10v112q0 15 13 20q62 24 137 24zM222 104q17 0 28 13.5
t11 37.5v48q-13 -3 -24 -6q-46 -16 -46 -58q0 -16 8.5 -25.5t22.5 -9.5z" />
    <glyph glyph-name="agrave.ss01" horiz-adv-x="495" 
d="M192 553l-115 152q-6 8 -6 14q0 10 15 15l127 40q3 1 6 1q9 0 13 -10l92 -210q1 -3 1 -6q0 -7 -10 -7h-99q-15 0 -24 11zM212 490q243 0 243 -219v-256q0 -15 -14 -15h-138q-16 0 -19 14q-4 23 -3 43q-13 -23 -33.5 -38.5t-42 -22t-44.5 -6.5q-60 0 -98.5 38.5
t-38.5 100.5t44.5 100t120.5 47q33 4 72 5v1q0 33 -22.5 48.5t-59.5 15.5q-52 0 -104 -20q-3 -2 -6 -2q-7 0 -7 10v112q0 15 13 20q62 24 137 24zM222 104q17 0 28 13.5t11 37.5v48q-13 -3 -24 -6q-46 -16 -46 -58q0 -16 8.5 -25.5t22.5 -9.5z" />
    <glyph glyph-name="aring.ss01" horiz-adv-x="495" 
d="M251 522q-50 0 -87.5 33.5t-37.5 83.5q0 25 10.5 46.5t28 36.5t40 23.5t46.5 8.5q50 0 87.5 -32.5t37.5 -82.5q0 -33 -17.5 -60t-46.5 -42t-61 -15zM251 682q-19 0 -31.5 -12.5t-12.5 -31.5q0 -20 12.5 -32t31.5 -12t31.5 12.5t12.5 31.5q0 20 -12.5 32t-31.5 12z
M212 490q243 0 243 -219v-256q0 -15 -14 -15h-138q-16 0 -19 14q-4 23 -3 43q-20 -34 -52 -50.5t-68 -16.5q-60 0 -98.5 38.5t-38.5 100.5t44.5 100t120.5 47q33 4 72 5v1q0 33 -22.5 48.5t-59.5 15.5q-52 0 -104 -20q-3 -2 -6 -2q-7 0 -7 10v112q0 15 13 20q62 24 137 24z
M222 104q17 0 28 13.5t11 37.5v48q-13 -3 -24 -6q-46 -16 -46 -58q0 -16 8.5 -25.5t22.5 -9.5z" />
    <glyph glyph-name="atilde.ss01" horiz-adv-x="495" 
d="M89 557q-13 0 -12 13q5 75 31 119t74 44q9 0 17.5 -2t15 -4t14.5 -6t12.5 -7t13 -8t11.5 -7q25 -16 37 -16q19 0 25 28q2 13 14 13h70q13 0 12 -13q-4 -73 -30 -118t-74 -45q-9 0 -17.5 2t-18 6t-15.5 7.5t-16.5 9t-14.5 7.5q-2 2 -9 5.5t-9.5 5t-7.5 4t-9 3t-8 0.5
q-22 0 -28 -28q-3 -13 -15 -13h-63zM212 490q243 0 243 -219v-256q0 -15 -14 -15h-138q-16 0 -19 14q-4 22 -3 42q-13 -22 -33.5 -37.5t-42 -22t-44.5 -6.5q-60 0 -98.5 38.5t-38.5 100.5t44.5 100t120.5 47q33 4 73 5v1q0 33 -23 48.5t-60 15.5q-52 0 -104 -20q-3 -2 -6 -2
q-7 0 -7 10v112q0 15 13 20q62 24 137 24zM222 104q17 0 28 13.5t11 37.5v48q-13 -3 -24 -6q-46 -16 -46 -58q0 -16 8.5 -25.5t22.5 -9.5z" />
    <glyph glyph-name="l.ss02" horiz-adv-x="272" 
d="M52 0q-14 0 -14 15v716q0 14 15 14h166q15 0 15 -14v-716q0 -15 -15 -15h-167z" />
    <glyph glyph-name="lslash.ss02" horiz-adv-x="272" 
d="M285 490q4 2 6 2q8 0 8 -11v-76q0 -14 -14 -20l-51 -22v-348q0 -15 -15 -15h-166q-15 0 -15 15v265l-51 -21q-3 -2 -6 -2q-7 0 -7 11v77q0 14 13 20l51 21v345q0 14 15 14h166q15 0 15 -14v-262z" />
    <glyph glyph-name="oslash.bold" horiz-adv-x="547" 
d="M443 425q75 -71 75 -183q0 -110 -70 -181t-175 -71q-58 0 -108 24l-29 -43q-9 -12 -23 -12h-67q-14 0 -6 12l60 89q-72 72 -72 182q0 109 70 178t175 69q56 0 105 -21l35 51q8 12 22 12h66q15 0 6 -12zM219 241v-7l68 100q-7 3 -14 3q-54 0 -54 -96zM273 143q14 0 24.5 7
t17 20.5t9.5 31t3 39.5v12l-72 -106q8 -4 18 -4z" />
    <glyph glyph-name="fl.ss02" horiz-adv-x="667" 
d="M375 480q15 0 15 -15v-106q0 -15 -15 -15h-100v-329q0 -15 -15 -15h-167q-14 0 -14 15v329h-57q-14 0 -14 15v106q0 15 14 15h57v53q0 110 53 166.5t154 56.5q49 0 90 -12q14 -5 14 -20v-103q0 -27 -30 -23q-11 2 -22 2q-63 0 -63 -70v-50h100zM614 745q15 0 15 -14v-716
q0 -15 -15 -15h-166q-15 0 -15 15v716q0 14 15 14h166z" />
    <glyph glyph-name="ordfeminine.ss01" horiz-adv-x="462" 
d="M141 342q-44 0 -74.5 28.5t-30.5 75.5q0 50 35.5 80t95.5 36q24 3 58 4q-14 41 -73 41q-35 0 -70 -13q-4 -1 -6 -1q-6 0 -6 10v81q0 13 12 17q53 18 112 18q202 0 202 -196v-160q0 -13 -13 -13h-121q-14 0 -17 12q-2 14 -1 27l-2 -1q-34 -46 -101 -46zM213 499
q-31 -9 -31 -38q0 -12 5.5 -19t14.5 -7q11 0 18.5 6.5t7.5 19.5v43q-8 -2 -15 -5zM388 267q15 0 15 -15v-68q0 -15 -15 -15h-339q-14 0 -14 15v68q0 15 14 15h339z" />
    <glyph glyph-name="zero.tf" horiz-adv-x="520" 
d="M260 -9q-49 0 -91 20.5t-76 63t-53 114.5t-19 166t19.5 166t53 114.5t75.5 63.5t91 21t91 -21.5t76 -64t53 -114t19 -165.5t-19 -165.5t-53 -114t-76 -63.5t-91 -21zM260 169q28 0 38.5 42t10.5 144t-10.5 144.5t-38.5 42.5q-27 0 -38 -43.5t-11 -143.5q0 -101 11 -143.5
t38 -42.5z" />
    <glyph glyph-name="one.tf" horiz-adv-x="520" 
d="M383 714q15 0 15 -15v-684q0 -15 -15 -15h-167q-15 0 -15 15v471l-118 -46q-3 -1 -6 -1q-7 0 -7 10v135q0 15 13 21l238 103q13 6 28 6h34z" />
    <glyph glyph-name="two.tf" horiz-adv-x="520" 
d="M465 168q14 0 14 -14v-139q0 -15 -14 -15h-402q-21 0 -21 14q0 5 4 13l150 293q26 50 38.5 82.5t12.5 59.5q0 41 -26.5 64t-70.5 23q-41 0 -84 -20q-4 -1 -7 -1q-6 0 -6 10v140q0 15 13 20q57 22 149 22q75 0 130 -24.5t86 -72.5t31 -114q0 -45 -16.5 -92.5t-51.5 -112.5
l-72 -136h143z" />
    <glyph glyph-name="three.tf" horiz-adv-x="520" 
d="M343 387q74 -19 111 -63.5t37 -106.5q0 -68 -42 -120t-108 -78.5t-143 -26.5q-89 0 -141 22q-13 6 -13 21v134q0 14 13 9q52 -20 107 -20q30 0 53.5 8t37 23t13.5 36q0 28 -26 44t-77 16h-41q-14 0 -14 15v125q0 15 14 15h42q99 0 99 64q0 28 -28 44t-71 16
q-56 0 -103 -21q-4 -2 -6 -2q-7 0 -7 10v130q0 16 13 20q63 21 143 21q119 0 186.5 -48.5t67.5 -132.5q0 -108 -117 -154z" />
    <glyph glyph-name="four.tf" horiz-adv-x="520" 
d="M496 255q15 0 15 -15v-124q0 -15 -15 -15h-48v-86q0 -15 -15 -15h-165q-15 0 -15 15v86h-221q-14 0 -14 15v131q0 14 7 27l242 423q7 13 22 13h144q15 0 15 -15v-440h48zM266 456q-23 -69 -39 -102l-48 -99h80v96q0 36 11 105h-4z" />
    <glyph glyph-name="five.tf" horiz-adv-x="520" 
d="M261 459q104 -6 165 -57.5t61 -145.5q0 -82 -42 -143.5t-109 -92t-146 -30.5q-75 0 -123 24q-13 6 -13 22v134q0 14 13 9q44 -20 84 -20q49 0 79.5 23.5t30.5 60.5q0 33 -27 55t-75 22q-45 0 -87 -19q-4 -2 -6 -2q-6 0 -5 9l54 388q2 14 17 14h318q15 0 15 -15v-140
q0 -15 -15 -15h-177z" />
    <glyph glyph-name="six.tf" horiz-adv-x="520" 
d="M306 467q83 0 141 -64t58 -160q0 -111 -71 -182t-172 -71q-109 0 -174 70.5t-65 174.5q0 115 69 232l138 230q7 13 22 13h168q12 0 12 -7q0 -4 -3 -9l-36 -58q-43 -73 -115 -173q15 4 28 4zM263 154q17 0 31 9.5t22.5 28.5t8.5 44q0 40 -18 62t-44 22q-27 0 -44 -22.5
t-17 -62.5q0 -38 17 -59.5t44 -21.5z" />
    <glyph glyph-name="seven.tf" horiz-adv-x="520" 
d="M511 710q19 0 13 -18l-226 -678q-4 -14 -19 -14h-192q-14 0 -9 14l180 513h-203q-14 0 -14 14v154q0 15 14 15h456z" />
    <glyph glyph-name="eight.tf" horiz-adv-x="520" 
d="M260.5 -8q-66.5 0 -121 23t-89.5 73.5t-35 121.5q0 58 26.5 101t73.5 65q-79 53 -79 150q0 87 64.5 140.5t159.5 53.5t160 -53.5t65 -140.5q0 -98 -79 -150q47 -22 73.5 -65t26.5 -101q0 -71 -35 -121.5t-89.5 -73.5t-121 -23zM260.5 439q22.5 0 35 17.5t12.5 47.5
q0 19 -5.5 32.5t-16 21t-26 7.5t-26 -7.5t-16 -21t-5.5 -32.5q0 -30 12.5 -47.5t35 -17.5zM260.5 150q25.5 0 41.5 19t16 53q0 32 -16 52t-42 20q-25 0 -41 -20t-16 -52q0 -34 16 -53t41.5 -19z" />
    <glyph glyph-name="nine.tf" horiz-adv-x="520" 
d="M258 720q109 0 174 -70.5t65 -174.5q0 -115 -69 -232l-138 -230q-8 -13 -22 -13h-168q-13 0 -13 7q0 4 4 9l36 58q43 73 115 173q-15 -4 -28 -4q-83 0 -141 64t-58 160q0 111 71 182t172 71zM195 474q0 -40 18 -62t44 -22t43.5 22.5t17.5 62.5q0 38 -17.5 59.5
t-43.5 21.5t-44 -22t-18 -60z" />
    <glyph glyph-name="zero.dnom" horiz-adv-x="343" 
d="M171.5 -5q-64.5 0 -106.5 48.5t-42 147.5q0 98 42.5 147t106.5 49q30 0 56 -11.5t47 -34.5t33 -61.5t12 -88.5q0 -98 -42 -147t-106.5 -49zM172 93q23 0 33.5 22.5t10.5 75.5q0 52 -10.5 75t-33.5 23t-34 -23t-11 -75q0 -36 5 -57.5t14.5 -31t25.5 -9.5z" />
    <glyph glyph-name="one.dnom" horiz-adv-x="309" 
d="M236 382q14 0 14 -14v-353q0 -15 -14 -15h-90q-15 0 -15 15v234l-64 -23q-3 -1 -5 -1q-8 0 -8 10v71q0 14 13 20l121 51q12 5 25 5h23z" />
    <glyph glyph-name="two.dnom" horiz-adv-x="347" 
d="M296 92q15 0 15 -14v-63q0 -15 -15 -15h-250q-13 0 -6 11l104 159q2 2 5 7q11 18 16.5 26.5t10.5 20.5t5 22q0 14 -8 24.5t-23 16t-35 5.5q-27 0 -54 -9q-3 -1 -5 -1q-8 0 -8 10v65q0 15 13 19q35 10 90 10q69 0 109.5 -30t40.5 -83q0 -24 -11.5 -48.5t-37.5 -61.5
l-48 -71h92z" />
    <glyph glyph-name="three.dnom" horiz-adv-x="335" 
d="M218 208q46 -10 68.5 -34t22.5 -57q0 -55 -52 -88t-126 -33q-53 0 -84 10q-14 4 -14 20v59q0 14 14 11q32 -9 65 -9t52.5 9t19.5 25q0 31 -74 31h-17q-15 0 -15 14v57q0 14 15 14h17q71 0 71 32q0 15 -18.5 23t-48.5 8q-35 0 -62 -8q-3 -1 -6 -1q-8 0 -8 10v58
q0 16 14 19q37 9 84 9q72 0 113 -25.5t41 -70.5q0 -58 -72 -83z" />
    <glyph glyph-name="four.dnom" horiz-adv-x="347" 
d="M319 137q14 0 14 -15v-54q0 -15 -14 -15h-30v-38q0 -15 -15 -15h-78q-15 0 -15 15v38h-145q-13 0 -13 13v62q0 13 8 23l154 219q8 11 21 11h68q15 0 15 -15v-229h30zM186 229h-1l-67 -92h67z" />
    <glyph glyph-name="five.dnom" horiz-adv-x="346" 
d="M165 246q69 -1 109.5 -28.5t40.5 -82.5q0 -63 -53 -101.5t-127 -38.5q-44 0 -75 11q-13 4 -13 20v61q0 14 14 10q28 -9 53 -9q22 0 39 5.5t26.5 15t9.5 21.5q0 17 -19.5 28.5t-52.5 11.5q-26 0 -52 -9q-3 -1 -6 -1q-7 0 -5 10l33 196q3 15 17 15h182q15 0 15 -15v-65
q0 -14 -15 -14h-113z" />
    <glyph glyph-name="six.dnom" horiz-adv-x="336" 
d="M205 252q47 0 80.5 -34.5t33.5 -86.5q0 -60 -44 -98.5t-105 -38.5q-62 0 -105 34t-43 91q0 35 12 69t47 88l60 92q8 13 23 13h88q15 0 7 -12l-55 -78q-17 -25 -45 -49q23 10 46 10zM170 85q20 0 34 11t14 31q0 21 -13.5 32t-34.5 11q-8 0 -15 -1.5t-13 -5.5t-10 -9
t-6 -12t-2 -16q0 -19 12.5 -30t33.5 -11z" />
    <glyph glyph-name="seven.dnom" horiz-adv-x="333" 
d="M320 381q14 0 9 -14l-146 -353q-6 -14 -20 -14h-94q-14 0 -8 13l118 266h-129q-14 0 -14 15v72q0 15 14 15h270z" />
    <glyph glyph-name="eight.dnom" horiz-adv-x="341" 
d="M171 -4q-42 0 -75.5 12t-55 39t-21.5 65q0 63 68 90q-53 29 -53 81q0 47 39 75.5t98 28.5q38 0 69 -12.5t49.5 -36.5t18.5 -55q0 -52 -54 -81q69 -28 69 -90q0 -56 -44 -86t-108 -30zM171 236q19 0 29.5 9t10.5 26q0 15 -11 23.5t-29 8.5q-19 0 -30 -8.5t-11 -23.5
q0 -17 11 -26t30 -9zM171 81q14 0 25 4.5t17.5 13t6.5 20.5q0 18 -14 28t-35 10t-35.5 -10t-14.5 -28q0 -12 7 -20.5t18 -13t25 -4.5z" />
    <glyph glyph-name="nine.dnom" horiz-adv-x="336" 
d="M166 387q40 0 73.5 -15t53.5 -44t20 -67q0 -35 -11.5 -68.5t-46.5 -87.5l-61 -93q-8 -12 -22 -12h-88q-15 0 -7 12l55 78q17 25 44 49q-22 -11 -45 -11q-48 0 -81 35t-33 87q0 59 43.5 98t105.5 39zM166 210q20 0 33 11.5t13 32.5q0 20 -12.5 31t-33.5 11t-34.5 -11.5
t-13.5 -30.5q0 -21 13.5 -32.5t34.5 -11.5z" />
    <glyph glyph-name="zero.numr" horiz-adv-x="343" 
d="M171.5 328q-64.5 0 -106.5 48.5t-42 147.5t42.5 147.5t106.5 48.5q30 0 56 -11.5t47 -34t33 -61t12 -89.5q0 -98 -42 -147t-106.5 -49zM172 426q23 0 33.5 23t10.5 75t-10.5 75t-33.5 23q-15 0 -25 -9.5t-15 -31.5t-5 -57t5 -57t14.5 -31.5t25.5 -9.5z" />
    <glyph glyph-name="one.numr" horiz-adv-x="309" 
d="M236 716q14 0 14 -15v-353q0 -15 -14 -15h-90q-15 0 -15 15v234l-64 -23q-3 -1 -5 -1q-8 0 -8 11v70q0 15 13 21l121 51q12 5 25 5h23z" />
    <glyph glyph-name="two.numr" horiz-adv-x="347" 
d="M296 426q15 0 15 -15v-63q0 -15 -15 -15h-250q-13 0 -6 11l104 159q2 3 5 8q9 13 13 19.5t9.5 16.5t7.5 17.5t2 14.5q0 9 -3 16.5t-8.5 13t-14 9t-18.5 5.5t-22 2q-27 0 -54 -9q-3 -1 -5 -1q-8 0 -8 11v64q0 15 13 19q35 10 90 10q69 0 109.5 -29.5t40.5 -83.5
q0 -24 -11.5 -48.5t-37.5 -61.5l-48 -70h92z" />
    <glyph glyph-name="three.numr" horiz-adv-x="335" 
d="M218 541q46 -10 68.5 -34t22.5 -57q0 -55 -52 -87.5t-126 -32.5q-53 0 -84 9q-14 4 -14 20v60q0 14 14 10q32 -8 65 -8t52.5 9t19.5 24q0 31 -74 31h-17q-15 0 -15 15v56q0 15 15 15h17q71 0 71 32q0 15 -18.5 23t-48.5 8q-35 0 -62 -9q-3 -1 -6 -1q-8 0 -8 11v58
q0 15 14 18q37 10 84 10q72 0 113 -26t41 -71q0 -58 -72 -83z" />
    <glyph glyph-name="four.numr" horiz-adv-x="347" 
d="M319 470q14 0 14 -14v-55q0 -14 -14 -14h-30v-39q0 -15 -15 -15h-78q-15 0 -15 15v39h-145q-13 0 -13 13v61q0 13 8 24l154 218q8 11 21 11h68q15 0 15 -15v-229h30zM186 563h-1l-67 -93h67z" />
    <glyph glyph-name="five.numr" horiz-adv-x="346" 
d="M165 580q69 -1 109.5 -28.5t40.5 -83.5q0 -63 -53 -101.5t-127 -38.5q-44 0 -75 11q-13 5 -13 21v60q0 14 14 10q28 -8 53 -8q16 0 30 3t24 8.5t15.5 13.5t5.5 17q0 11 -8.5 20t-25 14t-38.5 5q-26 0 -52 -8q-3 -1 -6 -1q-7 0 -5 10l33 196q3 14 17 14h182q15 0 15 -15
v-64q0 -15 -15 -15h-113z" />
    <glyph glyph-name="six.numr" horiz-adv-x="336" 
d="M205 586q47 0 80.5 -35t33.5 -87q0 -59 -44 -98t-105 -39q-62 0 -105 34.5t-43 91.5q0 35 12 68.5t47 87.5l60 93q8 12 23 12h88q15 0 7 -12l-55 -78q-17 -25 -45 -49q23 11 46 11zM170 418q20 0 34 11.5t14 30.5q0 14 -6.5 24t-17.5 15t-24 5t-23.5 -5t-16.5 -15t-6 -24
q0 -20 12.5 -31t33.5 -11z" />
    <glyph glyph-name="seven.numr" horiz-adv-x="333" 
d="M320 714q14 0 9 -14l-146 -353q-6 -14 -20 -14h-94q-14 0 -8 14l118 265h-129q-14 0 -14 15v72q0 15 14 15h270z" />
    <glyph glyph-name="eight.numr" horiz-adv-x="341" 
d="M171 329q-42 0 -75.5 12.5t-55 39.5t-21.5 65q0 63 68 89q-53 30 -53 81q0 47 39 75.5t98 28.5q58 0 97.5 -28.5t39.5 -75.5q0 -51 -54 -81q69 -27 69 -89q0 -57 -44 -87t-108 -30zM171 569q12 0 21 4t14 12t5 19q0 15 -11 24t-29 9q-19 0 -30 -9t-11 -24q0 -16 11 -25.5
t30 -9.5zM171 414q14 0 25 4.5t17.5 13.5t6.5 21q0 17 -14 27.5t-35 10.5q-14 0 -25 -4.5t-18 -13.5t-7 -20q0 -12 7 -21t18 -13.5t25 -4.5z" />
    <glyph glyph-name="nine.numr" horiz-adv-x="336" 
d="M166 720q40 0 73.5 -14.5t53.5 -43.5t20 -68q0 -34 -11.5 -68t-46.5 -88l-61 -92q-8 -13 -22 -13h-89q-14 0 -6 12l55 78q17 25 44 49q-22 -10 -45 -10q-48 0 -81 34.5t-33 86.5q0 60 43.5 98.5t105.5 38.5zM166 544q20 0 33 11.5t13 32.5q0 13 -6 22.5t-16 14t-24 4.5
q-21 0 -34.5 -11t-13.5 -31q0 -21 13.5 -32t34.5 -11z" />
    <glyph glyph-name="colon.calt" horiz-adv-x="264" 
d="M134 387q-43 0 -71 30.5t-28 72.5q0 43 28 73t71 30q42 0 69.5 -30t27.5 -73q0 -42 -28 -72.5t-69 -30.5zM134 99q-43 0 -71 30.5t-28 72.5q0 43 28 73t71 30q42 0 69.5 -30t27.5 -73q0 -42 -28 -72.5t-69 -30.5z" />
    <glyph glyph-name="periodcentered.case" horiz-adv-x="268" 
d="M135 241q-29 0 -52 14.5t-36 38.5t-13 52q0 43 28.5 73.5t72.5 30.5q43 0 71 -30.5t28 -73.5t-28 -74t-71 -31z" />
    <glyph glyph-name="colon.tf" horiz-adv-x="260" 
d="M131 280q-43 0 -71 30.5t-28 72.5q0 43 28 73t71 30q42 0 69.5 -30t27.5 -73q0 -42 -27.5 -72.5t-69.5 -30.5zM131 -8q-43 0 -71 30.5t-28 72.5q0 43 28 73t71 30q21 0 39.5 -8.5t31 -22.5t19.5 -32.5t7 -39.5q0 -42 -27.5 -72.5t-69.5 -30.5z" />
    <glyph glyph-name="comma.tf" horiz-adv-x="260" 
d="M143.5 203q44.5 0 75 -30t30.5 -76q0 -12 -2.5 -23.5t-7.5 -26t-8.5 -24.5t-12 -29t-11.5 -28l-62 -151q-5 -12 -18 -12h-45q-13 0 -11 13l37 185q-33 10 -52.5 36.5t-19.5 59.5q0 45 31.5 75.5t76 30.5z" />
    <glyph glyph-name="period.tf" horiz-adv-x="260" 
d="M135 -7q-44 0 -72.5 31.5t-28.5 73.5q0 44 28.5 74.5t72.5 30.5q42 0 70 -30.5t28 -74.5q0 -42 -28 -73.5t-70 -31.5z" />
    <glyph glyph-name="semicolon.tf" horiz-adv-x="260" 
d="M130 280q-29 0 -52.5 15t-36 39t-12.5 51q0 44 28.5 74.5t72.5 30.5q42 0 70 -30.5t28 -74.5q0 -42 -28 -73.5t-70 -31.5zM125 184q42 0 70.5 -30.5t28.5 -75.5q0 -14 -4.5 -32.5t-7.5 -27.5t-15 -37t-14 -34l-63 -151q-5 -12 -18 -12h-45q-13 0 -10 13l43 184
q-30 9 -48 36t-18 61q0 45 29.5 75.5t71.5 30.5z" />
    <glyph glyph-name="emdash.case" horiz-adv-x="918" 
d="M96 273q-14 0 -14 15v123q0 15 14 15h723q15 0 15 -15v-123q0 -15 -15 -15h-723z" />
    <glyph glyph-name="endash.case" horiz-adv-x="680" 
d="M96 273q-14 0 -14 15v123q0 15 14 15h485q15 0 15 -15v-123q0 -15 -15 -15h-485z" />
    <glyph glyph-name="hyphen.case" horiz-adv-x="495" 
d="M96 273q-14 0 -14 15v126q0 14 14 14h302q15 0 15 -14v-126q0 -15 -15 -15h-302z" />
    <glyph glyph-name="softhyphen.case" horiz-adv-x="495" 
d="M96 273q-14 0 -14 15v126q0 14 14 14h302q15 0 15 -14v-126q0 -15 -15 -15h-302z" />
    <glyph glyph-name="dollar.bold" horiz-adv-x="520" 
d="M493 228q0 -86 -54 -144.5t-147 -72.5l-15 -131q-1 -14 -16 -14h-95q-15 0 -13 14l14 131q-71 9 -121 31q-13 6 -13 21v141q0 15 13 8q73 -35 138 -41l13 117l-1 1q-29 13 -48.5 23.5t-44 29t-39.5 38.5t-26 49t-11 63q0 89 59.5 144t150.5 67l14 121q1 14 16 14h95
q15 0 13 -14l-13 -122q46 -6 87 -17q14 -4 14 -19v-127q0 -14 -14 -9q-46 15 -103 21l-13 -119l1 -1q81 -38 120 -83t39 -120z" />
    <glyph glyph-name="dieresiscomb.case" 
d="M-104 771q-31 0 -51.5 22t-20.5 53q0 30 20.5 52t51.5 22q20 0 36 -10t25 -27t9 -37q0 -31 -20 -53t-50 -22zM107 771q-31 0 -51 22t-20 53q0 30 20 52t51 22q15 0 28.5 -6t22.5 -16t14 -23.5t5 -28.5q0 -31 -20 -53t-50 -22z" />
    <glyph glyph-name="dotaccentcomb.case" 
d="M-17 760q-20 0 -37 11t-26 28t-9 37q0 31 20.5 53t51.5 22q21 0 37 -10t25 -27.5t9 -37.5t-9 -37t-25 -28t-37 -11z" />
    <glyph glyph-name="gravecomb.case" 
d="M123 778q1 -3 1 -6q0 -8 -10 -8h-88q-15 0 -25 11l-121 142q-7 8 -7 12q0 8 16 8l161 -1q14 0 19 -14z" />
    <glyph glyph-name="acutecomb.case" 
d="M-51 755q-15 0 -10 14l53 145q5 13 19 14h173q16 0 16 -7q0 -5 -7 -12l-132 -143q-10 -11 -24 -11h-88z" />
    <glyph glyph-name="hungarumlautcomb.case" 
d="M-180 755q-14 0 -10 14l47 145q5 13 19 14h172q15 0 15 -7q0 -5 -6 -12l-126 -143q-10 -11 -24 -11h-87zM42 755q-15 0 -10 14l53 145q5 13 20 14h173q15 0 15 -7q0 -4 -7 -12l-133 -143q-10 -11 -25 -11h-86z" />
    <glyph glyph-name="circumflexcomb.case" 
d="M171 771q4 -5 4 -9q0 -7 -13 -7h-93q-13 0 -21 11l-48 60l-48 -60q-8 -11 -21 -11h-94q-12 0 -12 7q0 4 3 9l95 146q7 11 20 11h113q13 0 20 -11z" />
    <glyph glyph-name="caroncomb.case" 
d="M165 928q15 0 6 -12l-114 -149q-9 -12 -23 -12h-70q-14 0 -23 12l-114 149q-4 4 -4 7q0 5 9 5h90q15 0 25 -11l54 -52l50 52q11 11 25 11h89z" />
    <glyph glyph-name="brevecomb.case" 
d="M-1 754q-25 0 -49 6.5t-44.5 19t-36.5 29.5t-26.5 39.5t-12.5 47.5v2q0 11 12 11h75q12 0 15 -13q14 -48 67 -48q25 0 43 12.5t24 35.5q4 13 16 13h74q14 0 12 -13q-6 -63 -54.5 -102.5t-114.5 -39.5z" />
    <glyph glyph-name="ringcomb.case" 
d="M0 749q-50 0 -87.5 33.5t-37.5 83.5q0 25 10.5 46.5t27.5 36.5t40 24t47 9q50 0 87.5 -33t37.5 -83t-37.5 -83.5t-87.5 -33.5zM0 821q13 0 23 5.5t15.5 15.5t5.5 24q0 19 -12.5 31t-31.5 12q-13 0 -23 -6t-15.5 -15.5t-5.5 -21.5q0 -20 12.5 -32.5t31.5 -12.5z" />
    <glyph glyph-name="tildecomb.case" horiz-adv-x="36" 
d="M-38 818q-22 0 -28 -26q-4 -12 -15 -12h-63q-13 0 -12 12q3 48 14.5 82.5t34.5 56t56 21.5q10 0 19 -1.5t19 -6.5l15 -7.5t17 -9.5t14 -8q25 -15 37 -15q19 0 25 27q2 13 14 13h70q13 0 12 -13q-3 -47 -14.5 -82t-34.5 -56.5t-55 -21.5q-11 0 -23 3.5t-19 6.5t-22 11.5
t-18 9.5q-31 16 -43 16z" />
    <glyph glyph-name="macroncomb.case" 
d="M-151 792q-15 0 -15 14v93q0 15 15 15h302q14 0 14 -15v-93q0 -14 -14 -14h-302z" />
    <glyph glyph-name="acutecomb.narrow" 
d="M-58 537q-15 0 -12 14l47 209q3 14 17 10l141 -37q19 -5 19 -20q0 -6 -4 -14l-79 -149q-7 -13 -22 -13h-107z" />
    </font>
</defs>
</svg>
